<?xml version="1.0" encoding="utf-8"?>
<!-- Generator: Adobe Illustrator 21.1.0, SVG Export Plug-In . SVG Version: 6.00 Build 0)  -->
<svg version="1.1" id="Layer_1" xmlns="http://www.w3.org/2000/svg" xmlns:xlink="http://www.w3.org/1999/xlink" x="0px" y="0px"
	 viewBox="0 0 126 29.9" style="enable-background:new 0 0 126 29.9;" xml:space="preserve">
<style type="text/css">
	.st0{fill:#FFFFFF;}
	.st1{fill:#22CAA2;}
</style>
<g>
	<path id="a" class="st0" d="M0,29.9h125.8V0H0V29.9z"/>
</g>
<g>
	<g>
		<path class="st1" d="M19.6,15.4c0,0-0.2,0.1-0.1,0C19.5,15.4,19.5,15.4,19.6,15.4C19.4,15.3,19.5,15.4,19.6,15.4
			c-0.4-0.2-0.3-0.1-0.4-0.2h0.1c-0.1-0.1-0.4-0.2-0.4-0.3H19l0,0c0.2,0.1-0.2-0.1-0.1-0.1c0,0-0.2-0.1-0.3-0.2l0,0
			c-0.3-0.1,0-0.1-0.2-0.2c-0.1-0.1,0,0,0,0c-0.1-0.1-0.1-0.1-0.3-0.2L18,14.1c-0.1,0-0.2-0.1-0.2-0.1l0,0l0,0h-0.1c0,0,0,0,0.1,0
			l0,0c0,0-0.1,0-0.1-0.1l0,0c-0.2-0.1-0.2-0.1-0.4-0.2c0,0,0.1,0,0.2,0.1c-0.1-0.1-0.1-0.1-0.3-0.2c0,0,0.1,0.1,0.1,0L17,13.9l0,0
			c0,0-0.1,0-0.2-0.1c0,0,0,0,0-0.1c0,0,0,0-0.1,0c-0.2-0.1-0.3-0.1-0.5-0.2c0,0,0,0,0-0.1c0.1,0.1,0,0,0.1,0
			c-0.1,0-0.2-0.1-0.1-0.1c-0.1-0.1,0,0-0.1,0L16,13.4c0,0,0.1,0.1,0,0c-0.1,0-0.1-0.1-0.2-0.1c0,0,0,0,0.1,0c0,0-0.1-0.1-0.2-0.1
			c0.1,0.1-0.2-0.1-0.1,0l-0.1-0.1c0,0,0,0,0.1,0c0,0-0.1,0-0.1-0.1l-0.1-0.1l-0.1-0.1c-0.1,0,0,0,0,0l-0.2-0.1v-0.1
			c-0.1,0-0.1,0-0.2,0c0.1,0-0.1-0.1,0-0.1c0-0.1-0.2-0.2-0.3-0.2s0.1,0.1,0.1,0.1c-0.3-0.1-0.3-0.1-0.5-0.2l0,0
			c-0.1-0.1-0.1,0-0.2-0.1c0.1,0-0.1-0.2-0.3-0.3c0,0,0.1,0.1,0,0.1L13.4,12l0,0c-0.1-0.1-0.2-0.2-0.3-0.2L13,11.7l0,0l-0.2-0.1
			c-0.1-0.1-0.2-0.1-0.3-0.2c0,0,0.1,0.1-0.1,0c0-0.1-0.2-0.2-0.2-0.2l-0.1-0.1l0,0c0,0-0.2-0.1-0.3-0.1c0.1,0-0.1-0.1-0.2-0.2
			c0,0-0.2-0.1-0.3-0.1c-0.1-0.1-0.1-0.1-0.1-0.1h-0.1c0,0-0.2-0.2-0.3-0.2h-0.1l0,0h-0.1h-0.1c0,0-0.1,0-0.2-0.1l0,0
			c-0.1,0,0,0,0-0.1c0,0-0.2,0-0.1,0.1h-0.1v-0.1H10c-0.1,0-0.1-0.1-0.2-0.1c0.1,0,0.2,0,0-0.1c0.1,0,0.2,0.1,0.2,0.1s-0.1,0,0,0
			c-0.1-0.1-0.1,0-0.2-0.1c0,0,0-0.1-0.1-0.1l0.5,0.1l0,0c0,0,0,0,0,0.1c0,0-0.2,0-0.2-0.1c0.1,0.1-0.3-0.1-0.2,0L9.7,9.9
			c0.1,0-0.1-0.1,0-0.1c0,0,0.1,0.1,0,0.1S9.6,9.8,9.6,9.8l0,0L9.5,9.6c0,0,0.1,0.1,0,0L9.4,9.5c0.1,0,0,0,0.1,0
			c-0.1,0-0.3-0.2-0.2-0.1H9.2c0,0,0.2,0.1,0,0.1l0,0l0,0l0,0l0,0l0,0H9.1l0,0c0,0,0,0-0.1,0c0,0,0,0,0-0.1c-0.1-0.1-0.1,0-0.1,0
			c-0.1,0-0.1-0.1,0-0.1C8.7,9.2,8.5,9.1,8.5,9c-0.1-0.1,0,0-0.1,0C8.3,8.9,8,8.8,7.8,8.7c0,0.1-0.1,0-0.1,0l0,0l0,0l0,0l0,0l0,0
			l0,0H7.6c-0.1-0.1,0.2,0.1,0.1,0C7.6,8.5,7.5,8.5,7.3,8.4c0.1,0-0.1,0-0.1-0.1h0.1l0,0C7,8.1,7.2,8.3,7,8.2c-0.1,0,0,0,0,0
			S6.9,8.1,6.8,8.1C7,8.1,7,8.2,7,8.2C7,8.1,6.8,8.1,6.7,8C6.9,8.2,6.8,8.2,7,8.3v0.1c0,0.1,0,0.1,0,0.2l0,0C7,8.8,6.9,9,6.9,8.9
			l0,0c0-0.2,0-0.3-0.1-0.5c0-0.1,0-0.2-0.1-0.1c0-0.1,0-0.2,0-0.2c0,0.2-0.1,0-0.1,0.1V8.1v0.1h0.1c0,0.1,0,0.1,0,0.1
			c0,0.1,0.1,0.1,0.1,0.3l0,0c0,0.1,0,0.1,0,0.1l0,0v0.1c0-0.1,0-0.2,0-0.2c0,0.2,0,0,0,0.1c0,0.1,0,0.1,0,0.1v0.1c0,0,0-0.1,0,0
			v0.2c-0.1,0,0,0.2,0,0.3c0-0.1,0,0,0,0v0.3c0,0,0-0.1,0,0s0,0.1,0,0.1V10c0,0.2,0.1,0.1,0,0.3c0,0,0-0.2,0-0.1v0.2c0,0,0,0,0-0.1
			c0,0.5-0.2,0.8-0.1,1.3c0,0.1,0,0,0-0.1c0,0.4-0.1,0.5-0.1,0.8l0,0c-0.1,0.4,0,1-0.1,1.4v-0.1c0,0.1,0,0.2,0,0.3
			c0,0-0.1-0.1,0,0.1v-0.1c-0.1,0.4,0,1.3-0.1,2c0,0.9,0,1.9,0,2.8c0-0.1,0.1-0.1,0,0c-0.1,0.3,0,0.5,0,0.8c0,0.5,0,1,0,1.5l0,0
			c0,0.1,0,0.1,0,0.2l0,0c0,0.1,0,0.6,0,0.8l0,0c0,0.2,0,0.1,0,0.3l0,0v0.2c0,0,0,0.2,0,0.3c0.2-0.1,0.3-0.2,0.4-0.2l0.5-0.3
			c0.2-0.1,0.4-0.2,0.5-0.3c0,0,0.3-0.1,0.4-0.2c0.3-0.2,0.7-0.4,1-0.6l0,0l0.1-0.1l0,0c0.1,0,0.2-0.1,0.3-0.2c-0.1,0-0.1,0-0.1,0.1
			c-0.1,0,0,0,0.1-0.1l0,0l0.1-0.1h0.1c0.3-0.2,0.5-0.3,0.8-0.5l0.2-0.1c0.2-0.1-0.1,0,0-0.1c0.1,0,0.1-0.1,0.1-0.1s0.1,0,0,0
			l0.1-0.1l0,0c0.2-0.2,0.5-0.2,0.7-0.4h-0.1c0.2-0.2,0.2-0.1,0.4-0.2l0,0c0.1-0.1,0.1-0.1,0.2-0.1l-0.1,0.1c0.1,0,0.3-0.2,0.2-0.2
			c0.1-0.1,0.1-0.1,0.2-0.1h-0.1c0.1-0.1,0.3-0.2,0.5-0.3l0,0c0.1-0.1,0.1,0,0.3-0.1l0,0c0.5-0.3,1.1-0.6,1.5-0.9
			c0.1-0.1,0.2-0.2,0.4-0.3l0,0l0.1-0.1c0.1,0-0.1,0.1,0,0v-0.1c0,0,0.3-0.2,0.1,0l0.5-0.3c0.1-0.1,0-0.1,0.2-0.1l0,0
			c0.4-0.2,0.4-0.3,0.7-0.5l0,0l0.2-0.1c-0.1,0,0,0.1-0.2,0.1l0.1-0.1c0.1,0,0.1-0.1,0.2-0.1s0.3-0.1,0.4-0.2c0,0,0.1-0.1,0.2-0.2
			c0.1,0,0,0,0.1,0l0,0c0.1,0,0.1,0,0.1,0c0.1-0.1,0.1-0.1,0.2-0.1l-0.1,0.1c0.1-0.1,0.1-0.1,0.3-0.2c0,0,0,0-0.1,0.1
			c0.1,0,0.1-0.1,0.2-0.1h-0.1c0.1,0,0.1-0.1,0.2-0.1l-0.1,0.1c0.1-0.1,0.1-0.1,0.2-0.2l0,0c0,0,0,0,0.1-0.1l0.1-0.1
			c0.1-0.1,0.2-0.1,0.3-0.2l0,0c0.1-0.1,0.1-0.1,0.2-0.1c-0.2,0.1-0.1,0-0.2,0c0.2-0.1,0.2-0.2,0.5-0.3c0,0,0,0-0.1,0.1
			c0,0.1,0,0.1-0.1,0.2c0.1-0.1,0.2-0.1,0.2-0.1l0,0C19.4,15.5,19.5,15.5,19.6,15.4z M17.2,16l-0.1,0.1L17.2,16
			c-0.1,0.1-0.2,0.1-0.2,0.1c0-0.1,0-0.1,0-0.2c0.1-0.3,0.3-0.6,0.4-1V15c0,0.1,0,0.2,0,0.3c-0.1,0.2-0.2,0.3-0.3,0.5
			C17.3,15.9,17.3,16,17.2,16z M17,15.1L17,15.1l-0.2,0.4l-0.1,0.2c0.1-0.3,0.2-0.5,0.4-0.8c0,0-0.1,0.2-0.2,0.4l-0.2,0.4
			c0.1-0.2,0-0.1,0.1-0.3c0.1-0.3,0.3-0.5,0.5-0.7l0,0c0,0-0.1,0.1-0.1,0.2c0,0,0.1-0.1,0.1-0.2l0,0l-0.1,0.1
			C17.1,15,17.1,15.1,17,15.1c0.1-0.1,0.1-0.2,0.1-0.2C17.1,15,17,15.1,17,15.1z M16.6,16.1C16.6,16.2,16.6,16.2,16.6,16.1
			c-0.1,0.1-0.1,0.1-0.1,0.2C16.5,16.2,16.6,16.2,16.6,16.1z M17.7,15L17.7,15L17.7,15L17.7,15c-0.1,0.1-0.1,0.2-0.1,0.3
			c0-0.1,0-0.1,0-0.2c0-0.1,0-0.2-0.1-0.2l0,0l0,0C17.6,14.9,17.7,14.9,17.7,15z M17.8,15L17.8,15c0,0.1,0,0.1-0.1,0.2
			c0-0.1,0-0.1,0-0.1C17.7,15.1,17.8,15,17.8,15z M17.5,14.9C17.5,14.8,17.5,14.8,17.5,14.9C17.4,14.8,17.4,14.8,17.5,14.9
			C17.5,14.8,17.5,14.8,17.5,14.9L17.5,14.9z M17.3,14.8L17.3,14.8C17.3,14.9,17.3,14.9,17.3,14.8C17.3,14.9,17.3,14.9,17.3,14.8
			C17.3,14.9,17.3,14.9,17.3,14.8C17.3,14.9,17.3,14.8,17.3,14.8z M17.4,14.9L17.4,14.9C17.5,14.9,17.5,14.9,17.4,14.9
			c0,0.3-0.2,0.5-0.3,0.9l0,0c0-0.1,0-0.1,0.1-0.2c0.1-0.3,0.2-0.5,0,0C17.3,15.2,17.4,15.1,17.4,14.9z M17.6,15.3L17.6,15.3
			L17.6,15.3L17.6,15.3z M17.7,14.3c0.1,0,0.1,0,0.2,0.1h-0.1C17.8,14.4,17.8,14.3,17.7,14.3L17.7,14.3z M17.8,15
			C17.8,15,17.8,15.1,17.8,15C17.8,15.1,17.8,15,17.8,15L17.8,15z M16.8,14.4c0.1,0,0.2,0.1,0.3,0.2c0,0,0,0-0.1,0l0.1,0.1H17
			l0.1,0.1c-0.1,0.1-0.2,0.3-0.3,0.4c-0.1,0.2-0.2,0.5-0.3,0.7l0,0c-0.1,0.2-0.1,0.4-0.2,0.6c0,0.1-0.1,0.1-0.1,0.1s0,0,0,0.1l0,0
			l0,0l0,0h-0.1c0-0.1,0-0.2,0-0.2l0,0c0,0,0.1-0.5,0.1-0.4c-0.2,0.4,0.2-0.4,0.1-0.2c0.1-0.3,0.2-0.4,0.3-0.7l0,0l0,0v-0.1l0,0l0,0
			l0,0l0,0l0,0l0,0l0,0l0,0l0,0l0,0l0,0l0,0l0,0l0,0c0,0,0,0,0-0.1v-0.1l0,0C16.7,14.5,16.7,14.4,16.8,14.4z M16.1,16.7L16.1,16.7
			L16.1,16.7C16,16.7,16,16.7,16.1,16.7C16,16.8,16,16.7,16.1,16.7c-0.1-0.1-0.1-0.1,0-0.1C16,16.6,16,16.6,16.1,16.7L16.1,16.7
			C16.1,16.7,16,16.7,16.1,16.7C16,16.6,16,16.6,16.1,16.7C16,16.6,16,16.6,16.1,16.7z M16,16.5L16,16.5c0,0.1,0,0.2,0,0.2l0,0
			c0,0-0.1,0-0.1,0.1c0,0-0.1,0-0.1,0.1v-0.2l0,0l0.1-0.2H16v-0.2v-0.1C16,16.3,16,16.4,16,16.5z M16.2,15.4
			C16.2,15.5,16.2,15.5,16.2,15.4c-0.1,0.2-0.1,0.3-0.2,0.4c0.1-0.2,0.1-0.4,0.2-0.6c0,0,0,0,0,0.1s-0.1,0.2-0.1,0.3
			C16.2,15.6,16.2,15.6,16.2,15.4z M16.2,15.9c0,0.1,0,0.1-0.1,0.2L16.2,15.9L16.2,15.9z M16.4,15.3L16.4,15.3
			C16.5,15,16.4,15.1,16.4,15.3z M16.4,15.2v-0.1c0,0,0,0,0-0.1c0,0,0,0,0-0.1C16.4,15.1,16.4,15.2,16.4,15.2z M16.6,14.7L16.6,14.7
			L16.6,14.7C16.7,14.6,16.7,14.6,16.6,14.7L16.6,14.7L16.6,14.7z M16.7,14.7L16.7,14.7L16.7,14.7L16.7,14.7L16.7,14.7z M16.7,14.6
			L16.7,14.6L16.7,14.6L16.7,14.6v0.1l0,0V14.6L16.7,14.6L16.7,14.6z M16.3,14.1c0.1,0.1,0.3,0.1,0.4,0.2l0,0c0,0,0,0,0.1,0
			c0,0,0,0,0,0.1s0,0.1,0,0.2l0,0l0,0l0,0l0,0l0,0l0,0l0,0l0,0l0,0c0,0,0,0,0-0.1l0,0c0,0,0,0,0,0.1c0,0-0.1,0-0.1,0.1
			c0-0.1,0-0.2,0-0.4c0-0.1-0.1-0.2-0.3-0.2c-0.1,0.1-0.2,0.1-0.2,0.2l0,0C16.2,14.2,16.3,14.2,16.3,14.1l-0.1,0.1
			c0,0,0,0.1-0.1,0.1l0,0l0,0c0,0.1-0.1,0.1-0.1,0.1c-0.1,0.1-0.1,0.3-0.1,0.2c0,0,0-0.1,0.1-0.1c0,0.1-0.1,0.1-0.1,0.1
			c0-0.1,0.1-0.2,0.1-0.3l0,0C16,14.4,16.1,14.3,16.3,14.1L16.3,14.1z M16.2,14.1L16.2,14.1L16.2,14.1L16.2,14.1L16.2,14.1z
			 M15.9,14.2c0-0.1,0-0.1,0-0.2c0.1,0,0.1,0,0.2,0.1l0,0l0,0l0,0H16c0,0,0,0,0.1,0c0,0,0,0.1-0.1,0.1l0.1-0.1l0,0L16,14.2l0,0l0,0
			l0,0L15.9,14.2C16,14.2,16,14.2,15.9,14.2L15.9,14.2L15.9,14.2L15.9,14.2L15.9,14.2v0.1V14.2z M15.7,13.8
			C15.8,13.8,15.8,13.8,15.7,13.8L15.7,13.8l0.1,0.1c0,0,0,0,0,0.1c-0.1,0.3-0.2,0.5-0.3,0.8c0,0,0,0,0,0.1
			c-0.1,0.1-0.1,0.2-0.1,0.2c0,0.1-0.1,0.2-0.1,0.2c-0.1,0.2-0.2,0.3-0.2,0.5l0,0C15,15.9,14.9,16,14.9,16l0,0c0,0,0,0.1-0.1,0.1
			l0.1-0.2c0-0.1,0,0.1,0,0.1l0.1-0.3c0.1-0.2,0.1-0.4,0.2-0.6l0.2-0.6c0,0,0,0,0,0.1C15.5,14.3,15.6,14.1,15.7,13.8z M15.4,15.6
			l-0.1,0.3V16l0,0c0-0.1,0-0.2,0.1-0.3C15.3,15.6,15.3,15.6,15.4,15.6C15.3,15.6,15.3,15.7,15.4,15.6z M14.8,16.1L14.8,16.1
			l0.1-0.2L14.8,16.1z M15.4,14.3c-0.1,0.3-0.3,0.6-0.3,0.6c0,0.1,0,0.1-0.1,0.2C15.1,14.8,15.2,14.5,15.4,14.3
			c0-0.2,0.1-0.4,0.2-0.5l0,0C15.6,13.9,15.5,14.1,15.4,14.3z M15.5,13.9C15.5,14,15.5,13.9,15.5,13.9c0-0.1,0.1-0.1,0.1-0.1
			C15.6,13.9,15.5,13.9,15.5,13.9z M15.2,13.4c0.1,0,0.1,0.1,0.2,0.1l0,0l-0.1,0.1C15.2,13.6,15.2,13.5,15.2,13.4z M15.1,13.9
			C15.1,13.8,15.1,13.8,15.1,13.9c0.1-0.2,0.2-0.3,0.3-0.3l0,0C15.4,13.6,15.3,13.7,15.1,13.9c0.1-0.1,0.2-0.2,0.3-0.3
			c0.1,0,0.1,0.1,0.2,0.1l0,0l0,0l0,0c0,0-0.1,0-0.1,0.1c0,0,0.1,0,0.1-0.1c0,0,0,0-0.1,0c-0.1,0.1-0.1,0.2-0.2,0.3
			c-0.1,0.2-0.2,0.4-0.2,0.4s0-0.1,0.1-0.2c-0.1,0.3-0.1,0.3-0.1,0.3c-0.2,0.7-0.2,0.5-0.3,1.1l0.1-0.4c0-0.1,0,0.2-0.1,0.5
			c0,0.1-0.1,0.3,0,0.1c0,0.1-0.1,0.3-0.1,0.5l-0.1,0.2c0,0-0.2,0.1-0.1,0l-0.2,0.2l0,0c0,0-0.1,0.2-0.2,0.2l0.2-0.3L14,16.7
			l0.1-0.2c0.1-0.1,0.2-0.2,0.2-0.4c0.1-0.1,0.1-0.3,0.2-0.4l0.1-0.2l0,0c0.1-0.3,0.2-0.7,0.3-1.1C15,14.3,15.1,14.1,15.1,13.9z
			 M13.6,17.9L13.4,18c-0.1,0,0,0,0-0.1l0,0c0.1-0.1,0.1-0.3,0.2-0.4l0,0c0,0,0,0,0.1-0.1h0.1c0.1-0.1,0.1-0.1,0.1-0.2
			c0.1-0.1,0.1-0.1,0.1,0c0.1-0.1,0.3-0.3,0.4-0.3c0.1-0.1,0,0,0-0.1c0,0,0.1,0,0.1-0.1c-0.1,0.3-0.2,0.5-0.3,0.6
			c-0.2,0.2-0.1,0.2,0,0C13.8,17.7,13.7,17.8,13.6,17.9z M14.7,14.8c-0.1,0.3-0.3,0.6-0.5,1.1L14,16.2c0.1-0.2,0.2-0.8,0.5-1.3
			c0.1-0.3,0.3-0.5,0.4-0.7C14.8,14.4,14.7,14.6,14.7,14.8l0.1-0.5L14.7,14.8z M14,16.4c0.1-0.1,0.2-0.3,0.2-0.4
			C14.2,16.1,14.1,16.3,14,16.4z M14.2,14c0,0.2-0.1,0.3-0.1,0.5v0.1C14,14.7,13.8,15,13.8,15c0.1-0.1,0.2-0.4,0,0.1
			c0,0.1-0.1,0.1-0.1,0.2c-0.1,0-0.1,0.1-0.2,0.1c0.2-0.6,0.3-1,0.4-1.3c0.1-0.1,0.1-0.3,0.2-0.4c0,0,0,0,0.1-0.1
			C14.3,13.7,14.2,13.8,14.2,14z M14.6,13.3L14.6,13.3v-0.2l0,0c0.1,0.1,0.2,0.1,0.3,0.2l0,0l0,0c0,0.2-0.1,0.4-0.2,0.5
			c0,0.1-0.1,0.1-0.1,0.2l0,0v0.1V14c0-0.1,0-0.1,0.1-0.3C14.7,13.5,14.7,13.4,14.6,13.3z M14.6,13.8c0,0.1-0.1,0.2-0.1,0.3
			c0,0,0-0.1,0-0.2C14.5,13.9,14.5,13.9,14.6,13.8c-0.1,0.1-0.1,0.1-0.1,0.1C14.5,13.9,14.5,13.9,14.6,13.8
			C14.5,13.8,14.5,13.8,14.6,13.8c0-0.1,0-0.1,0-0.2C14.6,13.7,14.6,13.7,14.6,13.8z M14.1,12.8L14.1,12.8c0.1,0.1,0.1,0.1,0.3,0.2
			l0,0h0.1l0,0h0.1v0.1l0,0l0,0l-0.1,0.1l0,0l0,0l0,0l0,0v-0.1c0-0.1-0.2-0.2-0.4-0.2H14C14,12.8,14,12.7,14.1,12.8
			C14,12.7,14,12.8,14.1,12.8z M13.9,13.1L14,13c0.1,0,0.2,0.1,0.2,0.1l0,0c-0.1,0-0.2,0.1-0.3,0.2l0,0
			C13.9,13.3,13.9,13.2,13.9,13.1z M13.9,13.7c0.1-0.1,0.1-0.2,0.2-0.2C14,13.5,13.9,13.6,13.9,13.7C13.8,13.6,13.8,13.6,13.9,13.7
			c0.1-0.2,0.2-0.3,0.4-0.4l0,0l0,0c0,0,0,0,0.1,0l0,0c0,0,0,0-0.1,0.1l0,0c-0.1,0.1-0.2,0.2-0.2,0.3C13.9,13.8,13.9,13.8,13.9,13.7
			c0,0.1,0,0.2,0,0.2c-0.1,0.3-0.2,0.5-0.3,0.8l-0.2,0.7c-0.1,0.1-0.3,0.3-0.3,0.3l0.1-0.1c-0.1,0.1-0.1,0.2-0.2,0.2
			c0.1-0.2-0.1,0.1-0.1,0.1l0.1-0.1c-0.1,0.1-0.1,0.1-0.1,0.1c-0.1,0.2-0.1,0.1-0.2,0.2l0.1-0.1v0.1c0,0-0.1,0.1,0,0
			c-0.1,0.1-0.2,0.3-0.2,0.4c0,0.1,0,0,0,0c-0.1,0.3-0.1,0.1-0.2,0.4l0,0V17v0.1c0.1-0.2,0.2-0.4,0.2-0.5c0,0.1,0,0,0.2-0.4v-0.1
			l0.1-0.1c0.2-0.4,0.3-0.5,0.3-0.6c0.1-0.1,0.2-0.3,0.5-1c-0.1,0.3,0.3-0.3-0.2,0.5V15c0.2-0.3,0.4-0.7,0.5-1.1
			c0-0.1,0.1-0.3,0.1-0.4C13.8,13.8,13.8,13.7,13.9,13.7z M12.4,14.8L12.4,14.8C12.5,14.8,12.4,14.8,12.4,14.8L12.4,14.8z
			 M12.7,14.3C12.7,14.3,12.7,14.2,12.7,14.3C12.7,14.3,12.8,14.3,12.7,14.3z M13.3,13.3L13.3,13.3C13.4,13.2,13.4,13.2,13.3,13.3
			C13.4,13.2,13.3,13.3,13.3,13.3z M13.6,13.1c0,0,0-0.1,0-0.2l0,0V13.1C13.7,13.1,13.7,13.1,13.6,13.1
			C13.7,13.1,13.6,13.1,13.6,13.1z M13.8,12.6L13.8,12.6L13.8,12.6c0,0.1-0.1,0.1-0.1,0.1c0-0.1,0-0.2,0-0.2l0,0
			C13.7,12.5,13.7,12.5,13.8,12.6z M13.3,12.3c0,0,0.1,0,0.1,0.1l0,0h0.1l0.1,0.1c0,0,0,0-0.1,0s-0.2,0-0.2,0.1
			C13.3,12.5,13.3,12.4,13.3,12.3z M13.2,13c0-0.1,0.1-0.1,0.1-0.1c0.1,0,0,0,0.1,0l0,0l0,0C13.3,12.9,13.3,13,13.2,13L13.2,13z
			 M13.2,13.4c0-0.1,0.1-0.1,0.1-0.2c-0.1,0.3-0.1,0.5-0.4,0.9C12.9,14.2,13,13.8,13.2,13.4c-0.2,0.4-0.4,0.7-0.5,0.9
			c-0.1-0.1-0.1-0.2-0.1-0.2s0,0-0.1,0c0,0,0,0,0-0.1v-0.1l0,0C12.9,13.7,13.1,13.6,13.2,13.4z M12.5,12.1
			C12.5,12.2,12.5,12.2,12.5,12.1C12.5,12.2,12.5,12.2,12.5,12.1c0,0.2,0,0.3-0.1,0.4l0,0l-0.1,0.1l-0.1,0.1
			C12.3,12.6,12.4,12.4,12.5,12.1z M11.6,12.3c0-0.2,0.1-0.4,0.1-0.7c0-0.1,0-0.2,0-0.2v-0.1l0,0l0,0l0,0c0.1,0.1,0.3,0.1,0.4,0.3
			l0,0h0.1l0,0l0,0c0,0-0.1,0-0.1,0.1c-0.1,0.1-0.2,0.3-0.3,0.4c-0.1,0.1-0.2,0.3-0.3,0.4C11.6,12.2,11.6,12,11.6,12.3z M11.3,13.8
			c0.1-0.3,0.2-0.5,0.2-0.5c0.3-0.5,0,0.2,0,0.2c0.1-0.2,0.3-0.6,0.5-1c0.1-0.1,0.1-0.2,0.2-0.3c0,0.1-0.1,0.2-0.1,0.3
			c-0.1,0.2-0.2,0.4-0.3,0.6c-0.2,0.4-0.4,0.8-0.6,1.1C11.3,14.1,11.3,13.9,11.3,13.8z M10.6,11.5c0.1-0.1,0.1-0.2,0.2-0.4
			c0-0.1,0-0.2,0-0.3c0.1,0,0.1,0.1,0.2,0.1c0,0.1,0,0.1,0.2,0.2l0,0c-0.1,0-0.2,0.2-0.2,0.2s0,0.1-0.1,0.1l-0.1,0.1
			c-0.1,0.1-0.1,0.1-0.2,0.2C10.6,11.6,10.6,11.5,10.6,11.5z M10.8,12c0,0-0.1,0.2-0.1,0.3l-0.1,0.3c0.1-0.2,0.3-0.8,0.6-1.1
			c0,0,0,0,0.1,0c-0.1,0.6-0.3,1.1-0.7,1.7v0.1c-0.1,0.1-0.1,0.1-0.2,0.2l0,0c0.1-0.3,0.1-0.5,0.2-0.8l0.1-0.1
			C10.6,12.2,10.8,12,10.8,12z M11.1,12.6C11.1,12.7,11.1,12.7,11.1,12.6c0,0.1,0,0.1,0,0.1C11.1,12.7,11.1,12.7,11.1,12.6z
			 M11,12.8c0,0.1-0.1,0.3-0.1,0.4c0,0,0,0-0.1,0C10.9,13.1,11,12.9,11,12.8L11,12.8z M10.5,10.6c0,0-0.1,0-0.1,0.1
			c0-0.1,0-0.1,0-0.2C10.4,10.5,10.4,10.5,10.5,10.6z M10.3,11.1L10.3,11.1c0,0.1,0,0.2,0,0.2l-0.1,0.1c0,0,0,0.1,0,0.2
			c-0.1,0.1-0.1,0.3-0.2,0.4c-0.1,0.1-0.2,0.3-0.2,0.4c0-0.1,0-0.1,0-0.2V12c0,0,0-0.1-0.1-0.1l0.1-0.2l0.2-0.3
			C10.1,11.3,10.2,11.2,10.3,11.1z M9.9,10.3H9.8l0,0v-0.1c0,0,0.1,0,0,0C9.8,10.2,9.9,10.2,9.9,10.3z M9.8,10.1L9.8,10.1L9.8,10.1
			L9.8,10.1z M9.7,10.8l0.1-0.1h0.1l0,0c0.1,0,0.1,0,0.1,0c-0.1,0-0.1,0-0.2,0c0,0,0,0,0.1-0.1c0,0,0.1,0,0.1,0.1v0.1
			c0,0,0,0-0.1,0.1l0,0l0,0L9.8,11c-0.2,0.3-0.4,0.5-0.6,0.8c0,0,0,0-0.1,0c0.1-0.3,0.3-0.5,0.4-0.8C9.6,10.9,9.6,10.9,9.7,10.8
			L9.7,10.8z M9.3,9.8L9.3,9.8L9.3,9.8L9.3,9.8z M9.2,10.3c0-0.1,0-0.1,0.1-0.2c0-0.1,0-0.2,0-0.2h0.1l0,0h0.1c0,0.1-0.1,0.1,0,0.1
			l0,0h0.1l0,0l0,0l-0.2,0.2C9.3,10.2,9.3,10.3,9.2,10.3L9.2,10.3z M9.3,13.9c0.1-0.2,0.2-0.3,0.2-0.5v-0.1c0.1-0.2,0.2-0.4,0.2-0.3
			l0.4-0.7c0,0.1,0,0.1-0.1,0.3l0,0c-0.2,0.3-0.4,0.6-0.5,0.9l-0.7,1.2v-0.1C9,14.5,9.1,14.2,9.3,13.9z M8.6,9.3
			C8.6,9.4,8.6,9.4,8.6,9.3C8.8,9.4,8.9,9.5,9,9.5c-0.1,0-0.2,0-0.2,0.1c0,0-0.1,0-0.1,0.1l0,0c0-0.1,0-0.1,0-0.2L8.6,9.3z
			 M8.4,10.5l0.1-0.1l0.1-0.2l0.1-0.1c0.1-0.1,0,0,0,0s0,0-0.1,0.1c0.3-0.2,0.3-0.2,0.3,0c-0.1,0.2-0.3,0.5-0.4,0.7c0,0,0,0,0-0.1
			C8.5,10.8,8.5,10.5,8.4,10.5C8.4,10.6,8.4,10.6,8.4,10.5z M8.2,11.1L8.2,11.1c-0.1,0.1-0.2,0.3-0.3,0.5c0.1-0.2,0.1-0.1,0,0
			c-0.2,0.2-0.3,0.5-0.5,0.8v-0.1c0,0.1-0.1,0.2-0.1,0.3l0,0l0,0c-0.1,0.2-0.2,0.5-0.3,0.6c0-0.1,0-0.2,0-0.3l0,0l0,0l0,0l0,0l0,0
			c0,0,0,0,0-0.1c0,0,0,0,0-0.1c0.1-0.2,0.1-0.3,0.2-0.5l0.1-0.1c0.1-0.2,0.3-0.4,0.4-0.7C8,11.3,8.2,11,8.3,10.8c0,0,0-0.1,0.1-0.1
			v0.1c0,0.1,0,0.2,0,0.3C8.3,11,8.3,11.1,8.2,11.1L8.2,11.1z M7.6,14.9c0-0.1,0.1-0.2,0.1-0.2l0.1-0.2c0-0.1,0.1-0.2,0.1-0.2
			C7.8,14.5,7.8,14.7,7.6,14.9L7.6,14.9z M7.6,20.4c0,0.1,0,0.3,0,0.4l-0.1,0.1c0,0,0,0-0.1,0.1v-0.1c0-0.1,0-0.2,0.1-0.3L7.6,20.4z
			 M7.9,14.4C8,14.3,8,14.2,8.1,14.1C8,14.2,8,14.4,7.9,14.5c0,0.1-0.1,0.1-0.1,0.2C7.8,14.7,7.8,14.6,7.9,14.4z M7.1,14.2
			C7.1,14.1,7.1,14.1,7.1,14.2c0,0,0-0.1,0-0.2h0.1C7.2,14.1,7.1,14.2,7.1,14.2C7.1,14.1,7.1,14.1,7.1,14.2z M7.1,11.7
			c0-0.1,0-0.2,0-0.3h0.1l0,0l0,0l0,0l0,0C7.2,11.5,7.1,11.6,7.1,11.7z M7.2,11.1L7.2,11.1L7.2,11.1L7.2,11.1z M8,9.8L8,9.8L8,9.8
			L8,9.8L8,9.8L8,9.8z M7.8,9.5C7.6,9.7,7.6,9.7,7.8,9.5c0-0.1,0.1-0.1,0.2-0.2c0,0,0,0,0,0.1C7.9,9.5,7.9,9.5,7.8,9.5z M8,9.3
			C7.9,9.4,7.7,9.5,7.6,9.6L7.5,9.7l0,0c0-0.1,0-0.1,0-0.2l0,0c0.1,0,0.2-0.2,0.5-0.3h0.1L8,9.3L8,9.3z M7.7,10.3
			c0.1-0.2,0.2-0.3,0.2-0.4l0,0C8,10,8,10,8,9.9l0,0C8,10,8,10,8,10.1s-0.1,0.2-0.2,0.4c-0.2,0.2,0-0.1,0.1-0.3
			c-0.2,0.4-0.4,0.7-0.6,1.1c0-0.1,0-0.1,0-0.2C7.4,10.8,7.7,10.3,7.7,10.3z M7.3,12.3l-0.1,0.3c0-0.1,0-0.1,0.1-0.2
			C7.3,12.4,7.3,12.4,7.3,12.3z M7.2,9.6L7.2,9.6L7.2,9.6L7.2,9.6z M8.4,9.5c0,0.1,0,0.2,0,0.2s0,0,0,0.1C8.3,9.7,8.3,9.6,8.4,9.5
			L8.4,9.5L8.4,9.5C8.3,9.5,8.3,9.5,8.4,9.5C8.3,9.5,8.3,9.5,8.4,9.5C8.3,9.5,8.3,9.5,8.4,9.5L8.4,9.5L8.4,9.5L8.4,9.5v0.2
			C8.4,9.7,8.4,9.7,8.4,9.5C8.4,9.6,8.4,9.5,8.4,9.5z M8.3,9.8C8.4,9.8,8.4,9.7,8.3,9.8C8.4,9.7,8.4,9.8,8.3,9.8
			C8.4,9.8,8.3,9.8,8.3,9.8L8.3,9.8L8.3,9.8z M8.4,11.5c0-0.1,0.1-0.1,0.1-0.1C8.4,11.4,8.4,11.5,8.4,11.5c0,0.1-0.1,0.2-0.1,0.2
			C8.3,11.6,8.3,11.6,8.4,11.5z M8.4,9.3L8.4,9.3L8.4,9.3L8.4,9.3z M8.2,9.1l0.1,0.1c0,0-0.1,0-0.1,0.1C8.2,9.2,8.2,9.2,8.2,9.1
			L8.2,9.1z M8.1,9.3c0.1,0,0.1-0.1,0.2-0.1l0,0l0,0l0,0l0,0l0,0l0,0c0,0,0,0,0,0.1l0,0l0,0V9.2C8.2,9.3,8.2,9.3,8.1,9.3L8.1,9.3z
			 M7.7,8.7C7.7,8.8,7.7,8.8,7.7,8.7C7.7,8.8,7.7,8.8,7.7,8.7c0.1,0,0.1,0.1,0.2,0.1C8,8.9,7.8,8.8,7.7,8.7l0.2,0.2l0,0
			C8,8.9,8,9,8,9H7.9h0.2l0,0C8,9,8,9,7.9,9C7.8,9,7.7,9.1,7.6,9.2c0,0,0,0.1-0.1,0.1c0,0,0,0,0-0.1V9V8.9C7.7,8.9,7.7,8.8,7.7,8.7z
			 M7.6,8.7c0,0.1,0,0.1,0,0.2c-0.1,0-0.1,0-0.2-0.1c0,0,0,0-0.1-0.1c0,0,0.1,0,0.1-0.1l0,0C7.5,8.7,7.6,8.7,7.6,8.7z M7,8.3
			C7,8.3,7.1,8.3,7,8.3C7,8.4,7.1,8.4,7,8.3c0.1,0.1,0.2,0.1,0.2,0.2c0,0-0.1,0,0,0.1h0.1c0,0,0,0,0.1,0.1c-0.1,0,0,0.1-0.2,0
			l0.1,0.1c0,0-0.1,0-0.1,0.1L7.1,8.8c0,0,0-0.1-0.1-0.1l0,0l0,0l0,0l0,0l0,0l0,0l0,0C7.1,8.5,7.1,8.4,7,8.3z M7.1,8.7L7.1,8.7
			L7.1,8.7L7.1,8.7z M7.1,8.7L7.1,8.7c0,0,0,0.1-0.1,0.2C7,8.9,7,8.8,7.1,8.7z M6.9,9C7,8.9,7,8.8,7.1,8.7c0,0.1,0.1,0.1,0.1,0.2
			C7.1,8.9,7.1,9,7,9.1v0.1C6.9,9.2,6.9,9.1,6.9,9z M7,9.3L7,9.3C7.1,9.2,7.1,9,7.2,8.9l0,0C7.3,9,7.4,9,7.4,9.1S7.3,9.4,7.3,9.5
			l0,0l0,0l0,0l0,0C7,9.9,7.1,9.8,7.1,9.8S7,9.9,7,10.1l0,0C7,9.8,7,9.5,7,9.3z M7.2,21.1c0,0.1,0,0.3,0,0.4c0,0,0,0-0.1,0v0.1l0,0
			l0,0l0,0l0,0l0,0v-0.1l0,0l0,0v-0.1v-0.1c-0.1-0.3,0.1-0.2,0-0.4l0,0c0-0.3,0-0.4-0.1-0.7l0,0h0.1v0.5c0,0,0.1-0.1,0.2-0.1
			C7.3,20.8,7.2,20.9,7.2,21.1z M7.3,14.6c-0.1,0.2-0.2,0.5-0.3,0.7c0-0.2,0-0.3,0-0.5c0.1-0.2,0.3-0.3,0.4-0.5
			C7.4,14.4,7.4,14.5,7.3,14.6s-0.1,0.2-0.1,0.2C7.3,14.7,7.3,14.7,7.3,14.6z M7.4,20.1v0.1V20.1L7.4,20.1C7.4,20,7.4,20,7.4,20.1
			c0-0.1,0-0.2,0-0.2s0-0.1,0.1-0.1C7.4,19.9,7.4,20,7.4,20.1z M7.6,21.3C7.6,21.4,7.6,21.4,7.6,21.3c-0.1,0.1-0.1,0.1-0.1,0.1
			c0.1-0.1,0.1-0.2,0.2-0.2C7.7,21.2,7.7,21.3,7.6,21.3C7.7,21.3,7.6,21.3,7.6,21.3z M8.3,16.9c-0.2,0.3-0.3,0.6-0.4,0.8l0,0
			c0,0.1-0.1,0.2-0.1,0.2l0,0v-0.1c0-0.1,0-0.2,0-0.4c0,0,0-0.1,0.1-0.1v-0.1l0.8-1.5C8.8,15.5,9,15.2,9.1,15
			c-0.2,0.6-0.6,1.6-0.7,1.9C8.3,16.9,8.3,16.9,8.3,16.9z M9.4,18.5c-0.1,0.3-0.2,0.6-0.3,0.9c0,0.1-0.1,0.2-0.1,0.4
			c-0.1,0,0,0.1-0.1,0.2l0,0c-0.1,0.1-0.1,0.2-0.2,0.3c0,0.1-0.2,0.2-0.2,0.2l0,0v-0.1c0-0.1,0-0.1,0.1-0.2c0.2-0.4,0.4-0.8,0.5-1.3
			c0.1-0.3,0.2-0.5,0.3-0.7V18.5z M9.7,18.5L9.7,18.5c-0.1,0.2-0.2,0.2-0.2,0.4c0,0,0,0,0,0.1c0.1-0.3,0.2-0.7,0.2-0.7
			c0.4-1,0.8-1.7,1.3-2.7c0.2-0.3,0.5-0.6,0.7-0.9c0.4-0.6,0.8-1.3,0.9-1.8c0-0.1,0.1-0.2,0.1-0.4l0,0c0.1-0.1,0.2-0.2,0.3-0.3l0,0
			c0,0.1,0,0.2,0,0.2c0,0.2-0.1,0.5-0.3,0.7c-0.1,0.1-0.1,0.3-0.1,0.3c0,0.1,0,0.1-0.1,0.2v0.1l0,0c-0.1,0.1-0.2,0.3-0.3,0.4h-0.1
			L12,14.3l0,0l0,0l0,0.1v-0.1c-0.1,0.1-0.1,0.2-0.1,0.2c-0.1,0.1-0.2,0.2-0.2,0.3l0,0c-0.2,0.3-0.3,0.4-0.4,0.7l0,0l-0.1,0.2v-0.1
			l-0.1,0.3l0,0c-0.1,0.2-0.3,0.5-0.4,0.8l0,0c-0.1,0.3-0.2,0.3-0.2,0.5l0,0l-0.1,0.2l0,0c0,0.2-0.2,0.4-0.2,0.3
			c0,0.1-0.1,0.2-0.1,0.3c-0.1,0.2,0,0-0.1,0.2c0-0.2,0-0.2-0.1,0l0,0C9.8,18.3,9.8,18.3,9.7,18.5z M10.8,19.3L10.8,19.3
			c0,0.1-0.1,0.2-0.1,0.2s-0.1,0-0.1,0.1c0,0,0-0.1,0.1-0.1l-0.1,0.2l0,0c0-0.1,0.1-0.2,0.1-0.3C10.7,19.4,10.7,19.3,10.8,19.3
			c0,0,0-0.1,0.1-0.1c0,0,0,0,0,0.1C10.8,19.1,10.9,19.3,10.8,19.3z M11.4,17c-0.2,0.4-0.1,0.4-0.2,0.7c0,0-0.1,0.1-0.1,0
			c0.1-0.1,0-0.1,0-0.1c0,0.1-0.2,0.3-0.1,0.2c-0.1,0.2,0-0.1,0,0.1l0,0.2c0,0,0.1-0.1,0,0c0,0-0.1,0.1-0.1,0.2
			c0.1-0.2-0.3,0.3-0.4,0.7v0.1l0,0c0,0.1-0.1,0.1-0.1,0.2l0,0c-0.1,0.1-0.2,0.3-0.3,0.4s-0.1,0.1-0.2,0.2c0,0,0,0-0.1,0v-0.1
			c0.1-0.1,0-0.1,0.1-0.3v0.1c0.2-0.3,0.2-0.5,0.3-0.7s0.2-0.3,0.1-0.2c0.5-1-0.1,0.2,0.1-0.3c0.1-0.3,0.3-0.6,0.3-0.6
			c-0.1,0.1,0.1-0.2,0,0c0,0,0.1-0.2,0.2-0.3l0.2-0.3c0-0.1,0,0.1-0.1,0.2c0.3-0.7,0.6-1.3,0.9-1.9l0,0c0-0.1,0.1-0.2,0.1-0.2l0,0
			l0.3-0.5c0,0,0,0,0,0.1c0,0.2,0-0.1,0,0s-0.1,0.1-0.1,0.3l-0.1,0.1c0,0.1-0.2,0.3-0.2,0.4c0.1-0.2,0.1-0.2,0.2-0.4v0.1
			c-0.1,0.1-0.2,0.3-0.2,0.4l0,0c-0.1,0.2-0.1,0.3-0.2,0.5c0,0,0-0.1,0.1-0.2c-0.1,0.1-0.1,0.1-0.2,0.4c0,0,0.1-0.1,0.1-0.2
			l-0.1,0.2l0,0C11.6,16.7,11.5,16.8,11.4,17z M12,18.9C12.1,18.9,12,18.9,12,18.9s-0.1,0-0.2,0.1h0.1c-0.1,0.1-0.1,0.1-0.2,0.1
			l-0.1,0.1l0,0l0,0h-0.1l0,0c0.1-0.1,0.1-0.1,0.1-0.2l0,0l0,0c0.1-0.1,0.1-0.1,0.2-0.2l0,0l0,0c0.1,0,0.1-0.2,0.2-0.3
			c0.1-0.1,0.1-0.2,0.2-0.3l0,0l0,0l0,0c0.1,0,0.1-0.1,0.2-0.1l0,0l0,0l0,0l0,0c0,0.1,0,0.1,0,0.2c0,0.2,0,0.3,0.1,0.4l0,0l0,0
			C12.4,18.7,12.2,18.8,12,18.9z M13,17.6L13,17.6L13,17.6l-0.1,0.1c-0.1,0.1-0.1,0-0.1,0.1c0,0,0,0,0-0.1l0,0c0-0.2,0,0,0.1-0.2
			l0,0c0.1-0.2,0.2-0.4,0.3-0.6c-0.1,0.1,0,0.1,0,0.1c0-0.1,0.1-0.2,0.2-0.3C13.2,17.1,13.1,17.3,13,17.6z M13.3,17.3L13.3,17.3
			L13.3,17.3c0-0.1,0.1-0.1,0.1-0.1L13.3,17.3c0.1-0.1,0.1-0.3,0.1-0.4l-0.1,0.3c-0.2,0.3,0.1-0.3,0.2-0.7l0,0c0.1,0,0.1,0,0.1-0.1
			v0.1l0.1-0.1c-0.1,0.2-0.2,0.5-0.3,0.8C13.4,17.2,13.4,17.3,13.3,17.3L13.3,17.3z M14.3,17.2c0-0.1-0.1,0.1,0,0.4l-0.1,0.1
			l0.1-0.1l0,0l0,0c-0.1,0-0.1,0-0.2,0.1l0,0v0.1c-0.2,0.1-0.5,0.3-0.7,0.4l0,0l0.2-0.1c0.1-0.1,0.2-0.1,0.2-0.2
			c0.3-0.3,0.5-0.5,0.6-0.8C14.4,17.1,14.3,17.2,14.3,17.2z M14.4,17.5L14.4,17.5c0-0.1,0-0.1,0-0.2c0-0.3,0.2-0.6,0.3-0.9l0.1-0.1
			v0.1c-0.1,0.2-0.2,0.4-0.2,0.6c0,0.1-0.1,0.2-0.1,0.3C14.4,17.4,14.4,17.4,14.4,17.5z M14.8,17.3L14.8,17.3L14.8,17.3l-0.1,0.2
			l0,0c0,0-0.1,0-0.1,0.1l0,0c0-0.1,0-0.1,0-0.2l0.1-0.2c0.1-0.1,0.2-0.2,0.2-0.3l0,0C14.9,17,14.9,17.1,14.8,17.3z M15,16.5
			c0,0.1,0,0.1,0,0.2c-0.1,0.1-0.1,0.2-0.2,0.3l0,0l0,0c0,0,0,0.1-0.1,0.1c0,0.1-0.1,0.1-0.1,0.1c0-0.1,0.1-0.3,0.1-0.4
			c0.1-0.3,0.2-0.6,0.4-0.9C15.1,16.3,15,16.5,15,16.5z M15.2,17.2c0,0-0.1-0.1-0.1-0.2l0,0c0.1-0.2,0.1-0.5,0.1-0.5l0,0l0.1-0.4
			c0.2,0.1,0.1,0.1,0.1,0.1s0.1,0,0.1,0.1c0,0-0.1-0.1,0-0.1l0,0l0,0v0.1v-0.1v-0.1c0,0,0-0.1-0.2-0.1c0,0,0,0-0.1,0v-0.1V16
			c0-0.3,0.1-0.5,0.2-0.8c0-0.1,0-0.1,0.1-0.2c-0.2,0.4,0,0,0.1-0.1c0-0.1,0.2-0.5,0.4-0.6c0.1,0,0,0,0,0l0,0h0.1
			c0.1,0,0.1,0.1,0.1,0.2v0.1c0,0.2,0,0-0.1,0.2l0,0v-0.1c0,0,0-0.1,0-0.2c0,0.1,0,0.2-0.1,0.3l0,0c0,0,0,0-0.2,0.3l0,0
			c-0.2,0.4-0.3,0.8-0.4,1.1c0,0.1-0.1,0.2-0.1,0.4c0,0,0-0.1,0.1-0.1c0,0,0,0,0,0.1c0,0.1-0.1,0.2-0.1,0.3L15.2,17.2z M16.4,16.5
			L16.4,16.5L16.4,16.5C16.4,16.5,16.4,16.4,16.4,16.5C16.4,16.4,16.4,16.5,16.4,16.5L16.4,16.5z M16.4,16.5
			C16.5,16.4,16.5,16.4,16.4,16.5L16.4,16.5z M16.6,16.4c-0.1,0-0.1,0.1-0.2,0.1l0,0c0.1-0.2,0.2-0.4,0.2-0.4l0,0l0.2-0.5
			c-0.1,0.2-0.1,0.3-0.2,0.5c0,0,0.1-0.2,0.2-0.4s0.2-0.4,0.2-0.4s0.1-0.1,0.1-0.2l0,0c0,0,0,0,0,0.1l0,0l0,0c0,0.1-0.1,0.2,0,0
			L17,15.4l-0.1,0.2c0.1-0.1,0.1-0.3,0.2-0.5l0,0c0,0.1-0.1,0.2-0.1,0.3l0,0l-0.1,0.3c0,0.1-0.1,0.2-0.1,0.3v0.1c0,0,0,0.1-0.1,0.1
			l0,0l0,0l0,0c0,0,0,0,0-0.1v0.1l0,0L16.6,16.4C16.6,16.4,16.7,16.3,16.6,16.4z M17.5,15.9L17.5,15.9L17.5,15.9L17.5,15.9z
			 M17.4,15.9L17.4,15.9C17.3,16,17.3,16,17.3,16c0.1-0.2,0.2-0.3,0.3-0.5c0,0,0,0,0,0.1C17.5,15.7,17.5,15.8,17.4,15.9z M17.6,15.9
			L17.6,15.9C17.6,15.8,17.6,15.8,17.6,15.9C17.6,15.7,17.6,15.8,17.6,15.9L17.6,15.9C17.6,15.8,17.6,15.8,17.6,15.9
			c0-0.1,0-0.2,0-0.2c0-0.1,0.1-0.1,0.1-0.2c0,0.1,0,0.2,0.1,0.3C17.7,15.8,17.6,15.8,17.6,15.9z M17.7,15.3L17.7,15.3
			c0-0.1,0-0.1,0.1-0.1l0.1-0.1l0.2,0.1l0,0c0,0.1,0,0.3,0,0.4c-0.1,0-0.2,0.1-0.3,0.2C17.8,15.6,17.7,15.4,17.7,15.3z M18.5,15.4
			L18.5,15.4L18.5,15.4c-0.1,0-0.2,0-0.2,0.1l0,0l0,0l0,0l0,0l-0.1,0.1l0,0l0,0c0-0.1,0-0.2,0-0.3c0,0,0.1,0,0.1,0.1l0,0l0,0
			c0,0,0.1,0,0,0l0,0l0,0h-0.1C18.3,15.3,18.4,15.4,18.5,15.4C18.4,15.4,18.5,15.4,18.5,15.4z"/>
		<path class="st1" d="M4.5,25C4.5,24.9,4.6,24.9,4.5,25c0-0.3,0-0.2,0-0.4v0.1c0-0.1,0-0.3,0.1-0.4c0,0,0,0,0,0.1l0,0
			c0,0.2,0-0.1,0-0.1s0-0.2,0-0.3l0,0c-0.1-0.3,0.1,0,0.1-0.3c0-0.2,0,0.1,0,0s0-0.2,0-0.4c0,0,0-0.2,0.1-0.2c0-0.1,0-0.3,0-0.4
			c0,0.2,0,0.2,0,0.4V23c0-0.2,0-0.3,0-0.5l0,0c0-0.2-0.1-0.3,0-0.5c0,0,0,0.1,0,0.2c0-0.1,0-0.1,0-0.4c0,0,0,0.1,0,0.2v-0.2l0,0
			c-0.1,0,0-0.2,0-0.3c0-0.3-0.1-0.4-0.1-0.6c0,0,0-0.1,0,0s0,0.1,0,0.1c0-0.1,0.1-0.2,0.1-0.2c0-0.2,0,0.1-0.1,0v-0.2
			c0,0,0,0.1-0.1,0c0-0.1,0-0.2,0-0.3c0,0,0,0,0,0.1c0-0.1,0-0.2,0-0.2c0,0.2,0-0.3-0.1-0.1v-0.2c0,0,0,0,0,0.1c0,0,0-0.1,0-0.2
			s0-0.2,0-0.2v-0.2c0-0.1,0,0,0,0v-0.2h0.1c0-0.1-0.1,0-0.1-0.2c0.1,0.1,0-0.2,0.1-0.1c0-0.1,0-0.3,0-0.4s0,0.1-0.1,0.1
			c0-0.4-0.1-0.4-0.1-0.6v0.1c0-0.2,0-0.1-0.1-0.2c0,0,0.1-0.2,0.1-0.5c0,0,0,0.1-0.1,0.1v-0.2l0,0c0-0.2,0.1-0.3,0-0.3l0.1-0.2v0.1
			v-0.2c0-0.2,0-0.2,0-0.3c0,0-0.1,0.1-0.1,0c0.1,0,0-0.3,0.1-0.3c0-0.1,0-0.2,0-0.2l0,0c-0.1,0-0.1-0.2-0.1-0.4
			c0.1,0,0-0.2,0.1-0.2c-0.1,0,0-0.3-0.1-0.3c0-0.1,0-0.1,0.1-0.1v-0.1c0-0.1,0-0.3,0-0.4v-0.1l0,0v-0.1v-0.1c0,0,0-0.1,0-0.2l0,0
			c0-0.1,0,0,0-0.1c0,0-0.1-0.3-0.1-0.1c0,0,0-0.1,0-0.2l0,0v-0.1c0-0.1,0-0.2,0-0.2c0,0.1,0.1,0.2,0.1,0c0,0.1,0,0.2,0,0.2
			s0-0.1,0,0c0-0.2,0-0.1,0-0.2c0,0,0,0,0-0.2v0.1l0,0v0.1V13c0,0.2,0-0.3-0.1-0.2c0,0,0-0.1,0-0.2c0,0.2,0-0.1,0.1-0.1
			c0-0.1,0,0.1,0,0s0-0.2,0-0.2l0,0v-0.1c0,0,0,0.1,0,0V12c0,0.1,0,0,0.1,0.1c0-0.1,0-0.4,0-0.3v-0.1c0,0.1,0,0.3,0,0l0,0v-0.1v-0.1
			c0,0,0,0,0-0.1v-0.1c0-0.2,0-0.1,0-0.2c0-0.1,0-0.1,0-0.1c0-0.1,0-0.3,0-0.4c0-0.2,0,0,0-0.1s0-0.5,0-0.8c0,0.1,0-0.1,0-0.1
			c0,0.1,0-0.3,0,0V9.5c0-0.1,0,0.2,0,0.1c0-0.2,0-0.3,0-0.5c0,0.1,0-0.1,0-0.1v0.1l0,0c0-0.4,0-0.1,0-0.3s0-0.2,0-0.2V8.5
			c0,0.1,0,0.1,0,0.1c0-0.1,0-0.3,0-0.4c0,0.3,0,0.2,0,0.5c0,0,0,0,0,0.2c0-0.1,0,0,0,0s0,0.1,0,0.2c0,0,0-0.1,0,0.1l0,0
			c0,0.1,0,0,0,0.1c0-0.1,0,0,0-0.2c0,0.2,0,0.4,0,0.5l0,0c0,0,0,0.1,0,0.2c0,0.1,0-0.1,0-0.1V10l0,0v0.1V10v0.2c0,0,0,0.2,0,0v0.3
			l0,0c0,0.1,0,0.1,0,0c0,0.1,0,0.5,0,0.4c0,0.2,0,0.3,0,0.6c0-0.2,0,0.3,0,0c0,0.1,0,0.2,0,0.3s0,0.1-0.1-0.1v0.1l0,0v0.1l0,0
			L4.2,12c-0.2,0.1-0.3,0.2-0.4,0.3l0,0c0-0.1,0.2-0.3,0.3-0.6c0,0,0-0.1,0-0.2v-0.2c0-0.1-0.1,0-0.1,0c-0.1,0-0.1,0-0.2,0.1H3.7
			c0.1-0.2,0.1-0.4,0.1-0.5L3.6,11c0.1-0.1,0.2-0.2,0.2-0.2L4,10.7l0.2-0.2l0.1-0.1c0,0,0,0,0.1-0.1c0,0,0,0,0-0.1c0,0,0,0,0-0.1
			S4.3,10,4.3,10l0,0l0,0H4.2c-0.1,0.1-0.1,0,0,0c0-0.1,0.1-0.2,0.1-0.4V9.4c-0.1,0-0.1,0-0.2,0c0.1,0,0.2,0,0.2,0v0.2
			c0,0.1,0,0.2,0,0V9.5l0,0c-0.1,0-0.1,0-0.2,0c0-0.1,0.1-0.1,0.1-0.2c0-0.1,0.1-0.2,0-0.2c0,0,0-0.1-0.2-0.1c0,0-0.1,0-0.1,0.1
			C3.9,9,4,9,4,8.9c0-0.1,0.1-0.1,0.1-0.2c0-0.1,0-0.2-0.1-0.3c-0.1,0-0.2,0-0.2,0c-0.1,0-0.1,0-0.2,0c-0.1,0-0.2,0.1-0.3,0.1l0,0
			H3.2L3.1,8.6C3,8.6,2.9,8.7,2.8,8.7C2.7,8.8,2.6,8.8,2.6,8.8C2.4,8.9,2.3,9,2.2,9.1c0,0,0,0-0.1,0c0,0,0,0,0.1,0
			c0,0-0.1,0-0.1,0.1c0,0,0,0-0.1,0c0,0,0-0.1,0.1-0.1c0.1-0.2,0.2-0.3,0.3-0.6l0,0L4,8.3c0.1,0,0.2,0,0.2,0c0.1,0,0.2,0,0.2,0
			c-0.2,0,0.1,0-0.1,0h0.1H4.3l0,0c-0.1,0-0.1,0-0.2,0s-0.1,0-0.3,0h0.1c-0.2,0-0.1,0-0.1,0l0,0H3.7c0.1,0,0.3,0,0.2,0
			c-0.2,0,0,0-0.1,0s-0.1,0-0.1,0H3.5c0,0,0.1,0,0,0H3.3c0,0-0.2,0-0.3,0c0.1,0,0,0,0,0H2.6c0,0,0.1,0,0,0s-0.1,0-0.1,0H2.2
			c-0.2,0-0.1,0-0.3,0c0,0,0.2,0,0.1,0H1.8c0,0,0,0,0.1,0c-0.3,0-0.6,0-0.8-0.1c-0.1,0-0.2,0-0.4,0H0.4c-0.1,0-0.2,0-0.2,0.1
			s0,0,0,0V8.2l0,0v0.1c0,0.1,0,0.1,0,0.2v0.2v0.1c0,0.1,0,0.3,0,0.4l0,0c-0.1,0.5-0.1,1.1-0.1,1.7v-0.1c0,0.1,0,0.2,0,0.3
			c0,0,0-0.1,0,0.1v-0.1C0,11.6,0,12.6,0,13.4c0,1.1,0,2.2,0,3.3c0-0.2,0.1-0.1,0,0c-0.1,0.3,0,0.6,0,0.9c0.1,0.6,0,1.2,0.1,1.7l0,0
			c0,0.1,0,0.1,0,0.2l0,0c0,0.2,0,0.5,0,0.6l0,0c0,0.1,0,0.1,0,0.2l0,0v0.2c0,0,0,0.4,0,0.5c0,0.2,0,0.5,0,0.7c0,0,0,0.3,0,0.5
			c0,0.4,0,0.9,0,1.4l0,0v0.1l0,0c0,0.1,0,0.3,0,0.4c0-0.1,0-0.1,0-0.2s0,0,0,0.1l0,0v0.1v0.1c0,0.4,0,0.7,0,1.1c0,0,0,0.3,0,0.2
			c0,0.3,0,0,0,0.1s0,0.1,0,0.2c0,0,0,0.1,0,0V26l0,0c0,0.3,0,0.6,0,0.9v-0.1c0,0.3,0,0.3,0,0.6v-0.1c0,0.1,0,0.1,0,0.3
			c0,0,0-0.1,0-0.2c0,0.1,0,0.4,0,0.3c0,0.1,0,0.2,0,0.2s0-0.1,0,0v0.7l0,0c0,0.2,0,0.2,0,0.4v0.1c0,0.2,0,0.3,0,0.5v0.1
			c0,0,0,0.1,0.1,0.1c0.3,0,0.5,0,0.8,0c0.4,0,0.7,0,1,0c0.1,0,0.3,0,0.5-0.1v0.1h0.2c0.1,0-0.1,0,0,0h0.1c0,0,0.4,0,0.1,0h0.6
			c0.2,0,0,0,0.3-0.1c0.1,0-0.1,0-0.1,0c0.2,0,0.4,0,0.6,0c0.1,0,0.2,0,0.2-0.1v-0.2V29v-0.2v-0.1l0,0c0-0.1,0-0.2,0-0.2
			c-0.1,0.1,0,0.1,0,0.2c-0.1,0,0-0.2-0.1-0.2c0-0.1,0-0.2,0-0.3c0-0.2,0-0.4,0.1-0.5c0-0.1-0.1-0.2-0.1-0.3c0-0.1,0,0,0.1-0.1l0,0
			c0-0.1,0-0.1,0-0.1c0-0.1,0-0.1,0-0.3V27c0-0.1,0-0.2,0-0.4v0.1c0.1-0.1,0-0.2,0-0.2s0,0.1-0.1,0.1c0-0.1,0-0.2,0-0.2v0.1
			c0-0.2,0-0.1,0-0.3l0,0c0-0.1,0-0.3,0-0.5l0,0c0-0.1,0-0.1,0-0.2c0,0.1,0,0.1-0.1,0.1C4.6,25.3,4.4,25.3,4.5,25 M4.2,12.1
			C4.2,12.1,4.2,12.2,4.2,12.1L4.2,12.1c0,0.1-0.1,0.2-0.1,0.3v-0.1c0,0,0,0-0.1,0v-0.1C4.1,12.2,4.2,12.2,4.2,12.1L4,12.2
			C4.1,12.2,4.2,12,4.2,12.1z M4,12.3L4,12.3C4,12.3,4.1,12.3,4,12.3L4,12.3C4,12.4,4,12.4,4,12.3L4,12.3z M3.7,12.6
			C3.9,12.6,3.8,12.6,3.7,12.6l0.1,0.1c-0.1,0.1-0.2,0.3-0.3,0.4c-0.1,0.1-0.3,0.3-0.4,0.4c-0.1,0.1-0.2,0.2-0.4,0.4L2.4,14H2.3
			c0.1-0.1,0.2-0.2,0.2-0.3c0,0,0,0,0-0.1c0.1-0.1,0.2-0.1,0.3-0.2c0.2-0.1,0.3-0.3,0.4-0.5l0.1-0.1C3.4,12.8,3.6,12.7,3.7,12.6z
			 M3.6,14.1L3.6,14.1L3.7,14l0,0l0,0c0,0.2-0.1,0.3-0.2,0.5c-0.2,0.3-0.4,0.5-0.7,0.7l0,0C3,14.9,3,14.9,3.1,14.7l0.1-0.1L3.6,14.1
			z M3.6,13.8L3.6,13.8L3.6,13.8L3.6,13.8L3.6,13.8L3.6,13.8z M3.8,13.7L3.8,13.7L3.8,13.7L3.8,13.7C3.7,13.8,3.7,13.8,3.8,13.7
			L3.8,13.7z M3.7,13.7L3.7,13.7L3.7,13.7C3.8,13.7,3.8,13.7,3.7,13.7L3.7,13.7z M3.7,14L3.7,14L3.7,14L3.7,14z M4,14.8
			C4,14.8,4.1,14.7,4,14.8L4,14.8L4,14.8c0,0.1,0,0.1,0,0.2l0,0c-0.1,0.2-0.2,0.4-0.4,0.6l-0.1,0.1c0.3-0.2,0.1,0-0.3,0.3
			c-0.1,0-0.1,0-0.1,0c-0.2,0,0,0-0.1,0s-0.2,0-0.3,0c0.1-0.1,0.2-0.2,0.3-0.3c0.2-0.2,0.3-0.3,0.5-0.5c0.1-0.1,0.2-0.1,0.3-0.2
			C3.8,14.8,3.9,14.8,4,14.8L4,14.8L4,14.8z M3.7,17.5c0,0.1-0.1,0.1-0.1,0.2L3.5,18c-0.1,0.1-0.1,0.2-0.2,0.2
			c-0.1,0.1-0.2,0.3-0.4,0.4c-0.2,0.2-0.4,0.3-0.6,0.5l0,0l0,0L2.4,19l0.2-0.2c0.2-0.2,0.3-0.3,0.4-0.6l0,0v-0.1
			C3.3,17.9,3.5,17.7,3.7,17.5z M3.2,17.7v-0.1c0.1-0.1,0.2-0.2,0.4-0.3c-0.1,0.1-0.2,0.2-0.3,0.3C3.3,17.7,3.2,17.7,3.2,17.7z
			 M3.9,20.8L3.9,20.8C3.9,20.9,3.9,20.9,3.9,20.8c0,0.1,0,0.1,0,0.1H3.8c-0.2,0.1-0.3,0.2-0.5,0.3L3.2,21c0-0.1,0.1-0.1,0.1-0.2
			l0.1-0.1c0.2-0.1,0.3-0.2,0.5-0.2C3.9,20.6,3.9,20.7,3.9,20.8L3.9,20.8z M3.7,21.2c-0.1,0.1-0.1,0.3-0.2,0.4l0,0c0,0,0,0-0.1,0.1
			l0,0l0,0l0,0l0,0c0,0,0-0.1,0-0.2C3.5,21.4,3.6,21.3,3.7,21.2L3.7,21.2L3.7,21.2L3.7,21.2z M3.7,21.7c-0.1,0.1-0.1,0.2-0.2,0.2
			v-0.1l0.1-0.1C3.6,21.8,3.6,21.7,3.7,21.7C3.6,21.7,3.7,21.7,3.7,21.7z M3.5,23.7L3.5,23.7L3.5,23.7L3.5,23.7l0.2-0.2
			c0,0,0.1,0,0.1-0.1C3.7,23.5,3.6,23.7,3.5,23.7l-0.1,0.2L3.5,23.7C3.4,23.8,3.4,23.8,3.5,23.7C3.4,23.8,3.4,23.7,3.5,23.7z
			 M3.4,22.9l0.1-0.1h0.1l0,0c0,0,0,0,0,0.1H3.4L3.4,22.9L3.4,22.9z M3.9,24.6L3.9,24.6v-0.2l0,0v-0.1l0,0l0,0v0.2l0,0V24.6z
			 M3.8,24.4C3.9,24.2,3.9,24.3,3.8,24.4L3.8,24.4z M3.9,23.1L3.9,23.1L3.9,23.1C3.8,23.1,3.8,23.1,3.9,23.1z M3.8,22.7
			c0-0.1,0-0.2,0-0.3C3.8,22.5,3.8,22.6,3.8,22.7L3.8,22.7z M3.9,23.1C3.9,23.2,3.9,23.2,3.9,23.1C3.9,23.2,3.8,23.2,3.9,23.1
			C3.8,23.2,3.8,23.2,3.9,23.1C3.8,23.2,3.8,23.2,3.9,23.1L3.9,23.1z M3.8,22.4C3.8,22.4,3.8,22.5,3.8,22.4
			C3.8,22.5,3.8,22.5,3.8,22.4L3.8,22.4C3.9,22.4,3.9,22.5,3.8,22.4L3.8,22.4z M3.8,22.5L3.8,22.5L3.8,22.5L3.8,22.5L3.8,22.5z
			 M3.8,24.1L3.8,24.1v0.1c-0.1,0.1-0.1,0.2,0,0.1c0,0.1-0.1,0.1-0.1,0.2l0,0c0,0-0.1,0-0.1,0.1c0.1-0.1,0.1-0.1,0.1-0.2L3.8,24.1
			C3.7,24.2,3.7,24.2,3.8,24.1L3.8,24.1L3.8,24.1C3.7,24.1,3.7,24.1,3.8,24.1L3.8,24.1z M3.8,25.8C3.8,25.7,3.8,25.7,3.8,25.8
			L3.8,25.8L3.8,25.8V26l0,0v0.1H3.7C3.7,26,3.7,25.9,3.8,25.8C3.8,25.9,3.8,25.8,3.8,25.8z M3,27.6L3,27.6C2.8,27.7,3,27.6,3,27.6
			H2.8l0,0l0,0l0,0l0,0l0,0c0.1-0.1,0.1-0.1,0,0l0,0c0,0,0,0,0.1-0.1c0.4-0.3,0.3-0.3,0.2-0.2c-0.1,0-0.1,0.1,0.6-0.6l0,0
			c0,0,0,0,0,0.1c0,0,0,0,0-0.1l0,0c0,0.1-0.1,0.2-0.1,0.2c-0.1,0.2-0.3,0.3-0.3,0.4C3.1,27.5,3.1,27.6,3,27.6z M2.5,27.7
			c-0.1,0.1-0.2,0.2-0.2,0.3C2.5,27.8,2.5,27.8,2.5,27.7C2.5,27.8,2.5,27.8,2.5,27.7C2.5,27.8,2.5,27.8,2.5,27.7
			C2.6,27.7,2.6,27.7,2.5,27.7L2.5,27.7C2.5,27.8,2.5,27.8,2.5,27.7z M2.1,27.7L2.1,27.7C2.1,27.7,2,27.7,2.1,27.7L2,27.6
			c0,0,0,0,0-0.1l0.3-0.3l-0.1,0.1c0.4-0.5,0.5-0.5,0.7-0.8c0.2-0.1,0.3-0.3,0.5-0.4c-0.2,0.2,0.2-0.1-0.2,0.3c0,0,0.3-0.2,0.5-0.5
			l0,0c0,0,0,0.1,0,0.2l0,0c0,0.1-0.1,0.2-0.1,0.3c0,0-0.1,0-0.1,0.1c-0.2,0.1-0.4,0.2-0.5,0.3c-0.1,0.1-0.1,0.1-0.1,0.1
			c-0.3,0.3-0.4,0.4-0.4,0.5L2.1,27.7z M1.4,27.1c0.1-0.1,0.1-0.2,0.2-0.3l0,0c-0.1,0.1-0.2,0.3,0.1-0.1l0,0
			c0.1-0.1,0.3-0.3,0.4-0.4c0.2-0.1,0.3-0.3,0.5-0.4l0,0c-0.2,0.2-0.3,0.3-0.4,0.5l0.1-0.1c-0.1,0.2-0.3,0.3-0.4,0.5
			C1.7,26.8,1.5,27,1.4,27.1z M0.8,26.3L0.8,26.3c0.1,0,0.1,0,0.2,0c-0.1,0.1-0.1,0.2-0.2,0.3l0,0C0.7,26.6,0.7,26.4,0.8,26.3z
			 M0.9,26.9c0-0.1,0.1-0.2,0.1-0.2C1.1,26.6,1,26.8,0.9,26.9L0.9,26.9z M0.9,26L0.9,26c0-0.1,0.1-0.2,0.2-0.3c0.1,0,0.1,0,0.2,0
			c0,0,0,0-0.1,0.1C1.1,25.9,1,26.1,0.9,26z M0.8,25.4C0.8,25.4,0.7,25.4,0.8,25.4C0.7,25.4,0.7,25.3,0.8,25.4c0-0.1,0-0.1,0-0.2
			c0,0,0,0,0.1,0l0,0C0.9,25.3,0.9,25.3,0.8,25.4C0.8,25.3,0.8,25.4,0.8,25.4z M0.8,25.3L0.8,25.3C0.8,25.4,0.8,25.4,0.8,25.3
			C0.8,25.4,0.8,25.3,0.8,25.3z M0.9,25L1,24.9c0.2-0.2,0.5-0.5,0.6-0.6c0.1,0,0.1-0.1,0.1-0.1c-0.1,0.2-0.3,0.3-0.4,0.5
			c-0.1,0.1-0.1,0.1-0.2,0.2S0.9,25,0.9,25z M1.3,24.4C1.3,24.4,1.3,24.3,1.3,24.4L1.3,24.4L1.3,24.4z M1.8,24.2
			C1.8,24.1,1.8,24.1,1.8,24.2C1.8,24.1,1.8,24.1,1.8,24.2c0,0,0,0-0.2,0.2C1.7,24.2,1.6,24.4,1.8,24.2z M1.5,25L1.5,25L1.5,25
			L1.5,25L1.5,25L1.5,25z M1.2,25.3C1.2,25.3,1.2,25.4,1.2,25.3C1.2,25.4,1.2,25.4,1.2,25.3C1.1,25.4,1.1,25.4,1.2,25.3
			C1.1,25.4,1.1,25.3,1.2,25.3c0-0.1,0-0.1,0-0.1l0,0c0,0,0,0,0.1-0.1l0,0C1.3,25.2,1.3,25.2,1.2,25.3c0.1-0.1,0.1-0.2,0.2-0.2h0.1
			C1.4,25.2,1.3,25.2,1.2,25.3z M1.9,25c0,0.1-0.1,0.1-0.1,0.2c-0.1,0.1-0.2,0.3-0.3,0.4c-0.1,0-0.1,0-0.1,0s0,0-0.1,0
			C1.5,25.3,1.7,25.1,1.9,25z M1.7,24l-0.4,0.3c0.2-0.2,0.3-0.4,0.5-0.6c0.1,0,0.1,0,0.2,0C1.9,23.8,1.8,23.9,1.7,24z M0.9,22.8
			c0.1,0,0.1,0,0.2,0c0.1-0.1,0.3-0.2,0.4-0.2l0,0l0.1-0.1c-0.1,0.1-0.1,0.2-0.2,0.3c-0.1,0.1-0.2,0.1-0.2,0.2
			c-0.1,0.1-0.4,0.2-0.4,0.3c0,0,0,0,0-0.1C0.8,23,0.9,22.9,0.9,22.8L0.9,22.8L0.9,22.8C0.9,22.8,0.9,22.9,0.9,22.8
			C0.9,22.9,0.9,22.8,0.9,22.8z M1.1,15.7C1,15.8,1,15.9,0.9,16.1c0-0.1,0-0.2,0-0.3c0.1-0.2,0.3-0.4,0.5-0.6
			c0.3-0.3,0.5-0.4,0.6-0.5l0,0l0,0h0.1c0,0.1-0.1,0.1-0.1,0.2l-0.4,0.4L1.1,15.7z M1.3,21.1L1.3,21.1v0.1
			C1.2,21.3,1.2,21.2,1.3,21.1C1.3,21.2,1.3,21.1,1.3,21.1z M1.2,20.6L1.2,20.6c0-0.1,0.1-0.2,0.1-0.2L1.2,20.6z M1.2,21.4
			c0,0.1,0,0.1,0,0.2l0,0c-0.1,0.1-0.1,0.1-0.2,0.2s-0.1,0.1-0.1,0c0-0.2,0.1-0.3,0.2-0.5C1.1,21.3,1.2,21.2,1.2,21.4
			C1.2,21.4,1.2,21.4,1.2,21.4z M1.2,20.5C1.2,20.6,1.2,20.6,1.2,20.5c-0.1,0.1-0.1,0.2-0.2,0.2c-0.1,0.1-0.1,0.1-0.2,0.2l0,0
			c0-0.1,0.1-0.2,0.2-0.2C1.1,20.6,1.2,20.5,1.2,20.5c0.1-0.1,0.1-0.1,0.2-0.1L1.2,20.5z M1.2,17.1c-0.1,0.1-0.2,0.2-0.3,0.3
			c0-0.1,0-0.2,0-0.2c0-0.1,0-0.2,0-0.3c0-0.1,0.1-0.2,0.1-0.2h0.1c0,0,0.1,0,0.2,0h0.3c0,0.1,0,0.1-0.1,0.2
			C1.3,16.9,1.3,17,1.2,17.1z M0.8,9.5L0.8,9.5L0.8,9.5L0.8,9.5C0.9,9.5,0.8,9.5,0.8,9.5L0.8,9.5C0.9,9.5,0.9,9.5,0.8,9.5
			C1,9.4,1.1,9.3,1.2,9.2C1.3,9.1,1.5,9,1.6,8.9C1.4,9.2,1.1,9.5,0.8,9.8V9.5C0.8,9.6,0.8,9.6,0.8,9.5L0.8,9.5z M1.2,9.2
			c0.1-0.1,0.3-0.3,0.5-0.5c0,0.1-0.1,0.1-0.1,0.2C1.5,9,1.4,9.1,1.2,9.2z M0.9,10.5L0.9,10.5L0.9,10.5L0.9,10.5L0.9,10.5
			C0.9,10.4,0.9,10.5,0.9,10.5L0.9,10.5L0.9,10.5L0.9,10.5L0.9,10.5L0.9,10.5L0.9,10.5z M0.9,10.5L0.9,10.5L0.9,10.5L0.9,10.5
			L0.9,10.5L0.9,10.5L0.9,10.5L0.9,10.5L0.9,10.5z M0.9,14L0.9,14L0.9,14L0.9,14L1,13.9c0.2-0.1,0.3-0.3,0.5-0.4
			c0.1-0.1,0.2-0.1,0.2-0.2c-0.1,0.2-0.3,0.3-0.4,0.5c0,0-0.1,0.1-0.2,0.1C1,14,0.9,14.1,0.9,14C0.9,14.1,0.9,14.1,0.9,14z M0.9,11
			L0.9,11L0.9,11L0.9,11z M1.4,10.9L1.4,10.9L1.4,10.9c0.2-0.1,0.3-0.1,0.4-0.2c-0.2,0.2-0.3,0.3-0.5,0.4c-0.1,0.1-0.2,0.2-0.4,0.4
			c0,0,0,0-0.1,0l0,0v-0.1C1.1,11.3,1.2,11.1,1.4,10.9z M1,11L1,11L1,11L1,11z M3,10.2L3,10.2L3,10.2c0-0.1,0.1-0.1,0.2-0.2
			c0.2-0.2,0.3-0.3,0.5-0.5l0,0c0,0,0,0,0.1,0l0,0l0,0l0,0C3.6,9.8,3.4,10,3,10.2c-0.1,0.2-0.3,0.3-0.5,0.5
			C2.7,10.5,2.8,10.4,3,10.2z M2.6,10.3l0.1-0.1C2.7,10.2,2.6,10.2,2.6,10.3L2.6,10.3z M2.4,11.6c-0.1,0-0.2,0.1-0.2,0.2l0,0
			c0.1-0.2,0.3-0.4,0.5-0.5c0,0,0.1,0,0.1-0.1h0.1c0,0,0,0,0.1,0l0,0l0,0c0,0,0,0-0.1,0.1l-0.2,0.1C2.6,11.5,2.5,11.5,2.4,11.6
			L2.4,11.6z M1.9,12.3C2,12.3,2,12.3,1.9,12.3C2,12.3,2,12.3,1.9,12.3c-0.2,0.2-0.4,0.4-0.6,0.6c-0.1,0-0.1,0-0.1,0l0,0
			C1.5,12.7,1.7,12.5,1.9,12.3z M1.2,12.9C1.1,12.9,1.1,13,1.2,12.9L1.2,12.9L1.2,12.9c0.1-0.2,0.3-0.3,0.4-0.4
			C1.4,12.6,1.3,12.8,1.2,12.9z M1.5,12.1c-0.1,0.1-0.2,0.1-0.3,0.2C1.1,12.4,1,12.4,1,12.5l0,0c0.1-0.2,0.2-0.4,0.4-0.6
			c0.1-0.1,0.1-0.2,0.2-0.2l0.1-0.1c0.1-0.1,0.3-0.2,0.4-0.3c0.1,0,0.1,0,0.2,0l0,0C2,11.5,1.8,11.8,1.5,12.1z M1,12
			C1,12,0.9,12,1,12C0.9,12,0.9,11.9,1,12c0-0.2,0.1-0.3,0.2-0.4l0,0c0.1,0,0.2-0.1,0.4-0.1c-0.1,0.1-0.1,0.1-0.2,0.2c0,0,0,0,0,0.1
			C1.2,11.8,1.1,11.9,1,12z M2.1,11.8C2.1,11.8,2.1,11.7,2.1,11.8L2.1,11.8L2.1,11.8z M2.2,10.7C2.1,10.9,2,11,1.8,11.2
			c0,0,0,0-0.1,0s-0.2,0.1-0.3,0.1C1.7,11.1,2,10.9,2.2,10.7c0.1-0.2,0.2-0.3,0.3-0.4l0,0C2.5,10.4,2.3,10.6,2.2,10.7z M1.9,10.6
			c-0.1,0.1-0.2,0.1-0.3,0.2H1.5l0,0c0.1-0.1,0.2-0.1,0.3-0.2C1.9,10.6,1.9,10.6,1.9,10.6C2,10.5,2,10.6,1.9,10.6z M1.1,10.9
			L1.1,10.9c0.1-0.2,0.3-0.4,0.5-0.6C1.5,10.5,1.3,10.7,1.1,10.9z M1.1,10.9C1.1,10.9,1.1,11,1.1,10.9C1.1,11,1.1,11,1.1,10.9
			C1.1,11,1.1,10.9,1.1,10.9L1.1,10.9z M0.9,13.7c0,0,0,0,0-0.1c0.1-0.1,0.2-0.2,0.3-0.3h0.2l0.4-0.1c0,0-0.1,0-0.1,0.1l0.1-0.1l0,0
			l0,0c-0.1,0.1-0.1,0.1-0.2,0.2c-0.2,0.1-0.4,0.3-0.5,0.4C1,13.8,1,13.9,0.9,14C0.9,13.9,0.9,13.7,0.9,13.7z M0.9,15.1L0.9,15.1
			L0.9,15.1V15h0.2h0.1c0,0,0,0-0.1,0C1.1,15,1,15.1,0.9,15.1L0.9,15.1z M0.9,10.4c0-0.2,0-0.3,0-0.5l0,0c0.3-0.2,0.5-0.4,0.7-0.5
			l0,0C1.5,9.6,1.2,9.9,1,10.2C1,10.3,0.9,10.3,0.9,10.4z M2.3,13.3c-0.2,0.1-0.3,0.1-0.4,0.2c0.1-0.1,0.2-0.3,0.3-0.4L2.5,13h0.1
			l0,0c0,0,0,0-0.1,0L2.3,13.3C2.4,13.1,2.4,13.2,2.3,13.3z M2.6,15.5c0.1-0.1,0.2-0.1,0.3-0.2C2.7,15.5,2.7,15.5,2.6,15.5
			c-0.1,0.2-0.1,0.2-0.2,0.3c-0.1,0-0.1,0-0.2,0l0,0c0-0.1,0.1-0.1,0.1-0.2C2.3,15.7,2.4,15.6,2.6,15.5z M3,16.7
			c0,0,0.1-0.2,0.1-0.3c-0.1,0.1,0.1,0,0.1-0.1s-0.1,0.1-0.1,0l0,0c0.1,0,0.1-0.1,0.2-0.1c-0.2,0.4-0.3,0.5-0.1,0.1
			c-0.1,0.2-0.3,0.5-0.5,0.9l-0.1,0.1l-0.2,0.1c-0.1,0,0,0-0.1,0l0,0l-0.1,0.1l0,0c-0.1,0.1-0.1,0,0-0.1c0,0,0,0,0.1,0
			c-0.1,0,0,0,0,0l0,0c0,0,0,0,0.1,0l0,0l0,0l0,0c0,0,0,0,0.1,0c0,0,0,0,0-0.1c0,0,0.2-0.2,0.1,0l0.1-0.1L2.9,17
			C2.9,16.7,3.1,16.6,3,16.7C3,16.6,3,16.6,3,16.7z M3.2,16.4C3.2,16.3,3.2,16.3,3.2,16.4C3.2,16.3,3.3,16.3,3.2,16.4
			C3.3,16.3,3.2,16.3,3.2,16.4z M2.3,19.1L2.3,19.1L2.3,19.1L2.3,19.1z M1.9,20.3c0,0.1-0.1,0.1-0.2,0.2l0,0l0,0
			C1.7,20.4,1.8,20.3,1.9,20.3C1.8,20.3,1.8,20.3,1.9,20.3z M1.7,21.8L1.7,21.8L1.7,21.8L1.7,21.8c0.1,0,0.1,0,0.2,0
			C1.8,21.9,1.7,22,1.6,22c-0.1,0.1-0.2,0.1-0.2,0.2c0.1-0.2,0-0.1,0.1-0.2C1.5,22,1.5,21.9,1.7,21.8z M1.7,22.1
			c0.1,0,0.1-0.1,0.2-0.1c-0.6,0.6-0.4,0.3-0.4,0.3c-0.1,0.1-0.2,0.2-0.3,0.2C1.5,22.2,1.9,22,1.7,22.1z M1.6,22.8
			c0.1-0.1,0.2-0.1,0.3-0.2l0,0l0,0l-0.1,0.1l0.1-0.1c-0.1,0.2-0.2,0.3-0.2,0.4c-0.2,0.2-0.3,0.4-0.5,0.6C1.1,23.7,1,23.9,0.8,24
			c0,0,0,0-0.1,0.1C1.1,23.6,1.3,23.2,1.6,22.8z M1.9,23.7C1.8,23.7,1.9,23.7,1.9,23.7C1.8,23.7,1.8,23.7,1.9,23.7L1.9,23.7z
			 M2,22.2L2,22.2L2,22.2c0.1-0.2,0.3-0.3,0.4-0.5c0.1,0,0.1,0,0.2,0l0,0l-0.1,0.1C2.3,22,2.2,22.1,2,22.2L2,22.2z M2.2,21.1
			L2.2,21.1L2.2,21.1L2.2,21.1z M2.2,25.6L2.2,25.6c-0.1,0-0.1,0-0.2,0c0,0,0,0,0-0.1c0.4-0.4,0.6-0.7,0.9-0.9
			c-0.2,0.3-0.3,0.5-0.3,0.4C2.5,25.2,2.3,25.4,2.2,25.6z M2.8,23.7c-0.1,0-0.1,0.1-0.2,0.1c0,0-0.1,0-0.2,0.1l0,0
			C2.5,23.8,2.7,23.8,2.8,23.7z M2.4,24L2.4,24L2.4,24L2.4,24L2.4,24z M2.3,24.1L2.3,24.1L2.3,24.1L2.3,24.1
			C2.2,24.1,2.3,24.1,2.3,24.1C2.2,24.1,2.3,24.1,2.3,24.1C2.4,24,2.4,24,2.4,24L2.3,24.1z M2.6,23.8c0.1,0,0.1-0.1,0.2-0.1l0,0l0,0
			L2.6,23.8L2.6,23.8z M2.8,23.6c-0.2,0.1-0.4,0.2-0.6,0.4l0.2-0.2c0.1-0.1,0.2-0.2,0.3-0.3C2.8,23.5,2.8,23.5,2.8,23.6
			c0-0.1,0.1-0.1,0.2-0.1C3,23.5,2.9,23.6,2.8,23.6C2.9,23.6,2.9,23.6,2.8,23.6z M3,23.5L3,23.5L3,23.5L3,23.5
			C2.9,23.6,2.9,23.6,3,23.5C2.9,23.6,3,23.5,3,23.5z M2.7,23.1L2.7,23.1c0.1-0.2,0.3-0.4,0.5-0.6l0,0l0,0l0,0
			C3,22.7,2.8,22.9,2.7,23.1z M3,20.4C3,20.5,3,20.5,3,20.4C2.7,20.6,2.9,20.5,3,20.4L3,20.4z M2.9,20.6c-0.1,0.1-0.2,0.3-0.3,0.4
			l0,0l0,0H2.5H2.4l0,0H2.3l0,0C2.5,20.9,2.7,20.8,2.9,20.6z M3.6,24.8c0,0.1-0.1,0.2-0.1,0.3c0,0,0,0-0.1,0.1
			c-0.2,0-0.3,0.1-0.5,0.3l0,0c0.2-0.2,0.3-0.3,0.5-0.5l0,0C3.4,25,3.5,24.9,3.6,24.8z M2.8,26.4L2.8,26.4L2.8,26.4
			C2.8,26.4,2.7,26.4,2.8,26.4L2.8,26.4L2.8,26.4c0,0,0-0.1,0.1-0.1l0,0L3,26.2c-0.1,0.1,0.1-0.1,0,0c0-0.1,0-0.1,0.1-0.2
			c0.2-0.2,0.3-0.3,0.4-0.4l0,0c0,0.1-0.1,0.1-0.1,0.2c0.1-0.1,0.1-0.1,0.1-0.2l0,0l0,0l0,0l0,0c0,0,0,0.1-0.1,0.1
			c-0.1,0.1-0.2,0.2-0.1,0.1C3.3,25.9,3.1,26.1,2.8,26.4z M3.4,25.6L3.4,25.6C3.5,25.6,3.5,25.6,3.4,25.6
			C3.5,25.6,3.5,25.6,3.4,25.6C3.5,25.6,3.5,25.6,3.4,25.6z M3,25.2c-0.1,0.1-0.2,0.2-0.3,0.3c0,0,0,0-0.1,0
			c0.1-0.1,0.3-0.3,0.5-0.5c0.1-0.1,0.2-0.1,0.3-0.2C3.3,25,3.2,25.1,3,25.2C3.1,25.1,3.4,24.9,3,25.2z M2.7,25.5L2.7,25.5L2.7,25.5
			L2.7,25.5z M3.7,26.4C3.7,26.4,3.7,26.5,3.7,26.4l-0.1,0.1c-0.1,0.1-0.1,0.1-0.2,0.2C3.5,26.6,3.6,26.5,3.7,26.4
			C3.6,26.4,3.7,26.4,3.7,26.4L3.7,26.4z M3.7,26.2L3.7,26.2L3.7,26.2L3.7,26.2z M3.8,26.7C3.8,26.7,3.8,26.6,3.8,26.7v0.1V26.7
			c0,0.2,0,0.2,0,0.3l-0.1,0.1c-0.1,0.1-0.1,0.1-0.2,0.2c0.1-0.1,0.1-0.1,0.1-0.1c0,0.1-0.1,0.1-0.1,0.1l-0.1,0.1
			c0.1-0.1,0.2-0.2,0.2-0.3c0,0,0-0.1,0.1-0.1C3.7,26.9,3.8,26.8,3.8,26.7z M3.8,27.3c-0.1,0-0.1,0-0.2,0.1c0.1-0.1,0.1-0.2,0.2-0.2
			l0,0l0,0V27.3z M3.8,27.8C3.8,27.9,3.8,27.9,3.8,27.8L3.6,28c0,0,0-0.1,0.1-0.1C3.7,27.9,3.8,27.9,3.8,27.8z M3.8,26.9L3.8,26.9
			L3.8,26.9L3.8,26.9z M3.4,26.8c-0.1,0.1-0.1,0.1-0.2,0.2l0.1-0.1c0.1-0.1,0.1-0.2,0.2-0.3c0,0,0,0,0.1,0
			C3.5,26.6,3.5,26.7,3.4,26.8C3.5,26.6,3.6,26.5,3.4,26.8z M2.7,27.7C2.6,27.7,2.6,27.7,2.7,27.7C2.6,27.8,2.6,27.8,2.7,27.7
			L2.7,27.7z M3.4,26.6c-0.1,0.2-0.2,0.3-0.3,0.5c-0.1,0.1-0.3,0.2-0.4,0.3C2.9,27.1,3.1,26.9,3.4,26.6z M2.7,27.7L2.7,27.7
			L2.7,27.7L2.7,27.7L2.7,27.7z M3.3,27.7L3.3,27.7C3.3,27.8,3.3,27.8,3.3,27.7C3.3,27.8,3.3,27.8,3.3,27.7c0.1-0.1,0.2-0.2,0.3-0.2
			c0,0,0.1,0,0.2,0c-0.1,0.1-0.1,0.2-0.2,0.3l0,0c-0.1,0.1-0.1,0.1-0.2,0.2C3.3,27.9,3.3,27.9,3.3,27.7C3.3,27.8,3.4,27.9,3.3,27.7z
			 M3.3,28c0,0,0.1-0.1,0.2-0.2l-0.1,0.1C3.4,27.9,3.4,28,3.3,28L3.3,28L3.3,28z M3.6,28.4L3.6,28.4c0.1-0.2,0.2-0.3,0.3-0.3
			c0,0.1,0,0.1,0,0.2C3.8,28.3,3.7,28.4,3.6,28.4L3.6,28.4C3.5,28.5,3.5,28.5,3.6,28.4z M3.7,25.2L3.7,25.2L3.7,25.2L3.7,25.2z
			 M3.6,24.4L3.6,24.4C3.7,24.4,3.7,24.3,3.6,24.4z M3.4,24.3L3.4,24.3L3.4,24.3L3.4,24.3L3.4,24.3C3.2,24.5,3,24.7,2.9,25l0,0
			c-0.1,0.1-0.2,0.2-0.3,0.3c-0.1,0.1-0.1,0.1-0.2,0.2c0.2-0.2,0.2-0.3,0.2-0.2c0.1-0.2,0.4-0.5,0.5-0.7c0,0,0,0,0-0.1
			C3.2,24.4,3.3,24.4,3.4,24.3z M3.2,24.1c-0.2,0.2-0.4,0.4-0.6,0.5c0.1-0.2,0.3-0.3,0.4-0.5C3.1,24,3.1,24,3.2,23.9
			C3.3,23.9,3.3,24,3.2,24.1z M3.3,21.8C3.3,21.8,3.3,21.7,3.3,21.8C3.3,21.7,3.3,21.7,3.3,21.8L3.3,21.8z M3.3,22.3l-0.1,0.1
			C3.2,22.4,3.2,22.4,3.3,22.3L3.3,22.3z M3.6,20.2L3.6,20.2L3.6,20.2L3.6,20.2c-0.2,0.2-0.4,0.4-0.5,0.5c0.1-0.1,0.1-0.2,0.2-0.3
			c0,0,0,0,0.1,0L3.6,20.2C3.6,20.1,3.6,20.2,3.6,20.2z M3.3,20c0,0,0-0.1,0.1-0.2c-0.1,0.2-0.2,0.4-0.3,0.6c-0.1,0-0.2,0.1-0.3,0.2
			l-0.3,0.3L2.4,21l-0.1,0.1c0,0-0.1,0-0.1,0.1l0,0c0.1-0.1,0.1-0.1,0.2-0.2l0,0c0,0,0.1,0,0.1-0.1l0,0l0,0l0,0v-0.1l0,0
			c0.1-0.1,0.4-0.3,0.6-0.6l0,0C3,20.1,3,20.1,3.1,20s0.3-0.2,0.4-0.3C3.4,19.8,3.3,20,3.3,20z M3.3,19.6l0.1-0.2h0.1l0,0
			c0.3-0.3,0.2-0.2,0.2-0.2l0,0l0,0v-0.1l0,0c0,0,0,0,0,0.1c0,0,0,0.1-0.1,0.1l0,0C3.5,19.5,3.4,19.5,3.3,19.6z M3.6,18.8
			c-0.1,0.1-0.3,0.3-0.4,0.4H3.1L3,19.3H2.8c0,0,0,0-0.1,0C3,19,3.2,18.8,3.4,18.7c0.1-0.1,0.2-0.2,0.3-0.2c0,0,0.1,0,0,0
			C3.8,18.4,3.7,18.6,3.6,18.8z M3.4,16.4c0-0.1,0.1-0.1,0.1-0.2h0.1c0.2,0,0.2,0,0.2,0l0,0v0.1c0,0.1-0.1,0.1-0.1,0.2
			c-0.1,0.1-0.2,0.2-0.3,0.3l-0.1,0.1C3.2,16.7,3.3,16.6,3.4,16.4z M3.6,16v-0.1v-0.1l0,0l0,0v0.1V16L3.6,16z M2.7,12.5L2.7,12.5
			L2.7,12.5c0.2-0.3,0.4-0.5,0.7-0.7c-0.1,0.1-0.2,0.3-0.3,0.4C3,12.3,2.8,12.4,2.7,12.5z M2.9,12.5L2.9,12.5L2.9,12.5
			C3.1,12.3,3,12.4,2.9,12.5z M3.9,11.6C3.9,11.5,3.9,11.5,3.9,11.6L3.9,11.6c0,0.2-0.1,0.3-0.2,0.5c-0.1,0.1-0.2,0.3-0.4,0.4H3.2
			c-0.1,0-0.2,0-0.3,0c0.3-0.2,0.5-0.5,0.6-0.8c0.1,0,0.1-0.1,0.2-0.1C3.8,11.6,3.8,11.6,3.9,11.6z M3.7,11C3.7,11,3.8,11,3.7,11
			L3.7,11v0.1v0.1l-0.1,0.1c-0.1,0-0.1,0.1-0.2,0.1c-0.4,0.3-0.8,0.7-1.1,1c-0.1,0-0.2,0.1-0.3,0.1l0,0c-0.1,0-0.2,0.1-0.3,0.1
			c0.2-0.2,0.4-0.4,0.6-0.6c0.1-0.1,0.3-0.3,0.4-0.4c0.2-0.1,0.3-0.2,0.2-0.2c0,0,0.1-0.1,0.3-0.3L3.3,11c0.1,0,0.1-0.1,0.2-0.1
			L3.7,11z M3.7,10.6L3.7,10.6L3.7,10.6L3.7,10.6z M3.8,10.5c0,0-0.1,0.1-0.3,0.3l-0.1,0.1l0,0H3.1c0.2-0.1,0.3-0.2,0.5-0.3
			C3.7,10.6,3.7,10.5,3.8,10.5L3.8,10.5z M3.8,10.5L3.8,10.5C3.8,10.5,3.9,10.5,3.8,10.5L3.8,10.5z M4,9.6l0.1-0.1l0,0l0,0h0.2l0,0
			l0,0v0.1c0,0-0.1,0.2-0.3,0.5c0,0,0,0.1-0.1,0.1c-0.3,0.1-0.7,0.3-1.2,0.7c0,0,0,0-0.1,0c0.1-0.1,0.2-0.1,0.3-0.2
			c0.3-0.2,0.6-0.4,0.8-0.7C3.8,9.9,3.9,9.7,4,9.6L4,9.6z M3.9,9.4C3.9,9.4,3.8,9.4,3.9,9.4c-0.1,0-0.1,0-0.2,0
			C3.8,9.4,3.8,9.4,3.9,9.4C3.8,9.4,3.8,9.4,3.9,9.4C3.8,9.4,3.8,9.3,3.9,9.4C3.9,9.3,3.8,9.4,3.9,9.4C3.8,9.3,3.9,9.3,3.9,9.4z
			 M3.2,8.9L3.2,8.9C3.4,8.8,3.3,8.8,3.2,8.9L3.2,8.9z M3.1,8.9c0.2-0.2,0.4-0.3,0.6-0.3h0.1h0.1v0.1c0,0.1-0.1,0.2-0.2,0.3
			c-0.4,0.4-0.8,0.7-1.3,1.2l0,0c-0.1,0.1-0.2,0.1-0.3,0.2H2c0,0,0.1,0,0,0l-0.1,0.1c0,0-0.2,0.1-0.3,0.1l0,0c0.1-0.1,0,0,0,0
			c0.2-0.2,0.4-0.5,0.6-0.8l0.2-0.2C2.6,9.5,2.8,9.3,3,9.2l0,0V9.1C3.1,9,3.1,9,3.1,8.9z M1.8,10c0,0,0.1-0.1,0.2-0.2l0,0
			C1.9,9.9,1.9,10,1.8,10z M2.7,8.9C2.8,8.8,2.9,8.8,3,8.8C2.7,9,2.4,9.3,2.2,9.6C2.1,9.7,2.1,9.8,2,9.8c-0.3,0.2-0.6,0.5-0.8,0.7
			c-0.1,0.1-0.2,0.3-0.3,0.4l0,0c0-0.1,0-0.1,0-0.2v-0.1c0,0,0,0,0,0.1c0,0,0,0,0-0.1c0,0,0-0.1,0.1-0.1l0,0l0,0c0,0,0,0,0,0.1v0.1
			c0-0.1,0-0.1,0.1-0.1l0,0c0,0,0-0.1,0.1-0.1c0.1-0.1,0.1-0.1,0.2-0.2c0-0.3,0.2-0.4,0.4-0.6C2,9.6,2.1,9.5,2.3,9.3
			c0-0.1,0.1-0.1,0.1-0.1V9.1C2.5,9,2.6,9,2.7,8.9z M2.2,9.2c0,0,0.1-0.1,0.2-0.1l0,0l0,0l0,0L2.2,9.2L2.2,9.2
			c0,0.2-0.1,0.2-0.2,0.3c0,0.1-0.2,0.2-0.3,0.3C1.6,9.9,1.5,9.9,1.4,10c0.2-0.2,0.3-0.3,0.5-0.5c0.1-0.1,0,0-0.1,0.1
			C2,9.4,2.1,9.3,2.2,9.2z M2.1,9.2L2,9.3C1.7,9.6,1.5,9.8,1.3,10c0.1-0.2,0.3-0.3,0.4-0.5c0.1-0.1,0.1-0.1,0.2-0.2
			C1.9,9.3,2,9.3,2.1,9.2z M1.9,9.3L1.9,9.3L1.9,9.3L1.9,9.3z M2,9l0.1-0.2C2.1,8.9,2,9,2,9z M2,8.5L2,8.5L2,8.5L2,8.5L2,8.5L2,8.5
			C2.1,8.5,2.1,8.5,2,8.5L2,8.5C2,8.5,2.1,8.5,2,8.5h0.3c0,0.1-0.1,0.2-0.1,0.3c0,0,0,0,0,0.1c0,0,0,0,0,0.1c0,0-0.1,0.2-0.2,0.3
			c-0.2,0-0.3,0-0.3,0.1l0,0L1.3,9.7C1,9.9,1.1,9.8,1.2,9.7L0.9,9.9l0,0l0,0l0,0c0.2-0.4,0.6-0.6,0.8-1C1.8,8.8,1.9,8.8,2,8.7l0,0
			c-0.1,0-0.2,0.1-0.2,0.2c0-0.1,0.1-0.1,0.1-0.2c0,0,0,0,0.1,0l0.1,0.1l0,0L1.9,8.6L2,8.5z M1.8,8.5L1.8,8.5
			C1.9,8.5,1.9,8.6,1.8,8.5L1.8,8.5C1.8,8.6,1.8,8.6,1.8,8.5C1.7,8.7,1.6,8.7,1.5,8.8C1.3,9,1.1,9.2,1,9.4c0-0.2,0.1-0.3,0-0.2
			c0.3-0.4,0.4-0.6,0.5-0.7H1.8z M1.5,8.6C1.1,9.1,1.6,8.4,1.2,8.9l0.1-0.2C1.4,8.6,1.4,8.6,1.5,8.6L1.5,8.6z M1.1,8.6h0.3
			c0,0.1-0.3,0.4-0.2,0.3L1.1,9C1,9.2,0.9,9.3,0.9,9.4c0,0-0.1,0-0.1,0.1V9.4c0,0,0.1,0,0.1-0.1H0.8l0,0V9l0,0c0-0.1,0-0.1,0-0.1
			c0-0.1,0.1-0.2,0.2-0.3L1.1,8.6z M0.8,8.6H1C1,8.7,0.8,8.8,0.8,9l0,0V8.6L0.8,8.6L0.8,8.6L0.8,8.6L0.8,8.6z M0.8,19.1L0.8,19.1
			c0-0.1,0-0.2,0-0.2c0.1,0,0.2-0.1,0.2-0.1l0,0h0.1l0,0c-0.1,0.1-0.2,0.3-0.3,0.5l-0.1,0.1c-0.1,0.1-0.1,0.1-0.1,0.1
			c-0.1,0.1,0,0.1-0.1,0.2l0,0C0.7,19.3,0.8,19.4,0.8,19.1z M0.7,20.2L0.7,20.2c0.1,0.1,0.1,0.2,0.2,0.2c-0.1,0.1-0.2,0.2-0.2,0.3
			l0,0C0.7,20.5,0.7,20.3,0.7,20.2z M0.7,22.1c0-0.3,0-0.6,0-1l0,0l0,0l0,0c0.1,0,0.1,0,0.2,0S1.1,21,1.1,21l0,0
			c-0.1,0.1-0.2,0.3-0.3,0.4c-0.1,0.2-0.1,0.3-0.1,0.5V22.1L0.7,22.1z M0.7,22.3L0.7,22.3L0.7,22.3l0.2-0.1L1,22.1
			C1.1,22,1.2,22,1.2,21.9l0.1-0.1c0.1,0,0.1-0.1,0.1-0.1s0,0,0.1-0.1c0,0,0,0,0.1,0c0,0,0,0-0.1,0l0,0c0,0-0.1,0.1-0.1,0L0.7,22.3
			c-0.1,0.1,0,0.2,0,0.2c0,0.1-0.1,0.1-0.1,0.2l0,0C0.7,22.7,0.7,22.5,0.7,22.3z M0.7,23.4L0.7,23.4l0.2-0.1L1,23.2l0.1-0.1h0.1
			C1.1,23.2,1,23.4,1,23.5l0,0L0.7,24C0.6,23.7,0.7,23.5,0.7,23.4z M0.7,24.6v-0.1c0,0,0,0,0-0.1l0,0c0.1,0,0.1,0,0.1-0.1
			C0.9,24.2,0.9,24.1,1,24s0.2-0.3,0.4-0.4c0.1-0.1,0.1-0.2,0.2-0.2c0,0.1,0-0.1,0,0v0.1c-0.2,0.2-0.4,0.5-0.5,0.6l0,0
			c0.4-0.5-0.2,0.2,0-0.1C0.8,24.3,0.7,24.5,0.7,24.6L0.7,24.6z M0.7,24.8L0.7,24.8L0.7,24.8L0.7,24.8c0.1,0,0.1,0,0.2-0.1
			s0.2-0.2,0.3-0.4c0.1-0.1,0.1-0.1,0.2-0.2l-0.1,0.2l0,0l0,0C1,24.4,1,24.5,1,24.5l0,0l0,0c-0.1,0.2-0.2,0.2-0.2,0.3
			c0,0,0,0-0.1,0.1l0,0V24.8z M0.7,25.9L0.7,25.9c0-0.1,0-0.1,0-0.3c0,0,0,0,0-0.1c0.1,0,0.1,0,0.2-0.1l0,0L1,25.5
			C0.9,25.7,0.8,25.8,0.7,25.9V26V25.9z M0.7,27C0.7,27,0.7,26.9,0.7,27L0.7,27C0.7,26.9,0.7,26.9,0.7,27L0.7,27h0.1l0,0l0,0l0,0
			l0,0l0,0l0,0c0.2-0.3,0.4-0.5,0.6-0.8c0.1-0.1,0.2-0.2,0.3-0.3c0.1,0,0.2,0,0.2,0c-0.4,0.4-0.9,0.9-1.3,1.4
			C0.7,27.1,0.7,27,0.7,27z M0.8,28.2c0,0,0-0.1,0.1-0.2l0,0c0,0,0,0,0,0.1L0.8,28.2L0.8,28.2c0.1,0,0.1-0.1,0.2-0.2l0.1-0.1
			c0.1-0.1,0.2-0.2,0.2-0.2c0.3-0.3,0.1-0.1,0.4-0.4v-0.1c0.1,0,0.1-0.1,0.2-0.1c-0.1,0.1-0.2,0.3-0.3,0.4c-0.1,0-0.1,0.1-0.1,0.1
			l0,0v0.1c-0.1,0.1-0.2,0.2-0.1,0.1C1.2,28,1,28.2,0.9,28.4C0.8,28.2,0.8,28.2,0.8,28.2z M0.9,28.9L0.9,28.9
			C0.8,28.9,0.8,28.9,0.9,28.9C0.8,28.8,0.8,28.8,0.9,28.9L0.9,28.9C0.8,28.8,0.8,28.8,0.9,28.9C0.8,28.8,0.8,28.8,0.9,28.9
			c-0.1-0.1-0.1-0.1-0.1-0.1c0-0.1,0.1-0.2,0.2-0.4l0.1-0.1l0.2-0.2L1,28.3c0.1-0.1,0.3-0.3,0.4-0.5c0.1-0.1,0.2-0.2,0.3-0.3
			c0.1,0,0.1-0.1,0.2-0.1c0,0.1,0,0.1,0,0.1l0,0c-0.3,0.4-0.5,0.6-0.9,1.1C1,28.7,0.9,28.8,0.9,28.9L0.9,28.9z M1.2,28.7
			c0,0-0.1,0-0.1,0.1c0.2-0.3,0.4-0.5,0.5-0.7l0.3-0.4l0,0c0,0.1,0.1,0.1,0.1,0.1v0.1l0,0L1.8,28c0,0,0,0.1-0.1,0.1
			c-0.1,0.1-0.2,0.2-0.2,0.3C1.4,28.5,1.3,28.5,1.2,28.7C1.2,28.6,1.2,28.7,1.2,28.7z M1.6,28.9H1.5c0,0,0,0-0.1,0c0,0,0,0,0.1,0
			C1.5,28.9,1.5,28.9,1.6,28.9L1.6,28.9z M1.4,28.9l0.1-0.2c0-0.1,0.1-0.2,0.2-0.2c0.2-0.3,0.5-0.5,0.9-0.7l0,0
			C2.3,28,2,28.3,1.7,28.7c0,0.1-0.1,0.2-0.2,0.2C1.4,28.9,1.3,28.9,1.4,28.9z M1.8,28.8C1.8,28.9,1.7,28.9,1.8,28.8
			C1.7,28.9,1.7,28.8,1.8,28.8C1.7,28.8,1.7,28.8,1.8,28.8l0.1-0.2L1.8,28.8C1.7,28.8,1.7,28.8,1.8,28.8c-0.1,0,0.1-0.3,0.5-0.7
			c0.1-0.1,0.1-0.1,0,0c0.1-0.1,0.1,0,0.2-0.1c-0.1,0.1,0.1-0.1,0.2-0.2c0.1,0,0.2,0,0.3,0c-0.2,0.3-0.4,0.4-0.5,0.7l0,0l0,0
			c-0.1,0.1-0.2,0.2-0.3,0.3C2.1,28.7,1.9,28.8,1.8,28.8z M2.5,28.3L2.5,28.3C2.5,28.4,2.5,28.4,2.5,28.3L2.5,28.3z M2.5,28.8
			L2.5,28.8c-0.1,0-0.2,0-0.3,0c0.1,0,0.1-0.1,0.2-0.1l0,0C2.4,28.8,2.4,28.8,2.5,28.8L2.5,28.8C2.5,28.8,2.6,28.8,2.5,28.8
			L2.5,28.8z M2.7,28.6c-0.1,0-0.1,0-0.2,0l0,0c0.2-0.1,0.2-0.2,0.6-0.7c0.1-0.1,0.1-0.2,0.2-0.2v0.1c0-0.1,0,0.1,0,0.1v-0.1l0,0
			c0,0.1,0,0.1,0,0.2c-0.1,0.1-0.3,0.3-0.4,0.4c-0.1,0.1,0.1-0.1,0.2-0.2L2.7,28.6L2.7,28.6z M3.2,28.6c0,0.1-0.1,0.1-0.1,0.2l0,0
			l0,0l0,0c-0.1,0-0.2,0-0.3,0C2.9,28.7,3,28.6,3.2,28.6c-0.1-0.1,0-0.1,0-0.1V28.6c0,0,0-0.1,0-0.1l0,0C3.2,28.5,3.2,28.5,3.2,28.6
			c0-0.1,0-0.1,0-0.1l0,0C3.2,28.5,3.2,28.5,3.2,28.6z M3.2,28.4C3.3,28.4,3.3,28.4,3.2,28.4c0.1-0.1,0.1-0.1,0.1-0.1l0,0
			C3.3,28.4,3.3,28.4,3.2,28.4L3.2,28.4c0.1-0.1,0.1-0.1,0.1-0.1s-0.1,0.1-0.1,0.2C3.2,28.5,3.2,28.5,3.2,28.4z M3.6,28.7
			c-0.1,0-0.1,0-0.2,0c0.1-0.1,0.3-0.2,0.4-0.4l0,0C3.7,28.5,3.7,28.6,3.6,28.7z M3.8,28.7L3.8,28.7L3.8,28.7L3.8,28.7
			C3.7,28.7,3.8,28.6,3.8,28.7c0-0.1,0-0.1,0-0.1V28.7C3.8,28.6,3.8,28.6,3.8,28.7L3.8,28.7z M3.9,25L3.9,25c0,0,0,0.1,0,0.2
			c-0.1,0-0.1,0-0.2,0.1c0,0,0-0.1,0.1-0.1L3.9,25v-0.3v-0.1c0,0.1,0,0.1,0.1,0.2C3.9,24.8,3.9,24.9,3.9,25z M3.9,22.4L3.9,22.4
			L3.9,22.4L3.9,22.4z M3.8,22.1c-0.1,0.1-0.2,0.2-0.3,0.3l-0.1,0.1l-0.2,0.2c0,0,0,0-0.1,0c0,0,0,0,0.1-0.1l0.1-0.2l0.1-0.2
			c0.1-0.2,0.2-0.3,0.3-0.4l0,0l0,0l0,0C3.9,22,3.9,22,3.8,22.1C3.9,22.1,3.9,22.1,3.8,22.1z M3.9,20.3L3.9,20.3
			c-0.1,0-0.1,0-0.2,0.1c0.1-0.1,0.1-0.1,0.2-0.2l0,0l0,0C3.9,20.2,3.9,20.2,3.9,20.3z M3.9,19.8L3.9,19.8L3.9,19.8L3.9,19.8
			L3.9,19.8L3.6,20c-0.1,0.1-0.2,0.1-0.2,0.2c0.1-0.2,0.1-0.3,0.2-0.5v-0.1l0,0l0.2-0.1l0,0v0.1h0.1C3.9,19.6,3.9,19.7,3.9,19.8
			C3.9,19.7,3.9,19.8,3.9,19.8S3.9,19.7,3.9,19.8C3.9,19.7,3.9,19.7,3.9,19.8L3.9,19.8z M3.9,19.2L3.9,19.2L3.9,19.2L3.9,19.2z
			 M4,18.8C4,18.8,4,18.9,4,18.8V19V18.8V19v0.1l0,0v0.1l0,0c0,0-0.1,0-0.1,0.1H3.8c0-0.1,0.1-0.3,0.1-0.4L4,18.8L4,18.8L4,18.8
			l-0.1,0.1V19c0,0.1,0,0.1,0,0S3.9,18.9,4,18.8v-0.2c0,0,0,0,0-0.1C4,18.7,3.9,18.7,4,18.8z M4,18L4,18C4,18,4,18.1,4,18
			c-0.1,0.1-0.3,0.2-0.4,0.2l-0.1,0.1l0,0C3.7,18.1,3.9,18,4,17.8l0,0l0,0C4,17.8,4.1,17.9,4,18z M3.9,17.6c0-0.1,0.1-0.2,0.1-0.4
			l0,0v0.1l0,0C4,17.4,3.9,17.5,3.9,17.6z M4.1,17.2L4.1,17.2L4.1,17.2L4.1,17.2L4.1,17.2L4.1,17.2L4.1,17.2z M4.1,16.9L4.1,16.9
			L4.1,16.9L4.1,16.9z M4.1,15.7L4.1,15.7L4.1,15.7C4.1,15.8,4.1,15.7,4.1,15.7v0.5v-0.1c0,0.1,0,0.1,0,0.3c0-0.2,0,0.1,0,0.2v-0.1
			c0,0.1,0,0.1,0,0.1c0,0.2-0.1,0.1,0,0.3v-0.1c0,0,0,0,0,0.1c0,0,0,0.1,0,0c0,0,0,0,0,0.1l-0.5,0.3l-0.3,0.2l0.1-0.3H3.2
			c0.2-0.1,0.3-0.2,0.3-0.3l-0.2,0.2c0,0,0.5-0.4,0.6-0.7c-0.3,0.4,0,0,0.1-0.1c0.1-0.2,0.1-0.1,0,0c0,0.1-0.1,0.2-0.1,0.1
			c0-0.1,0-0.1,0.1-0.2c0,0,0-0.1,0.1-0.1L4,16l0,0l0,0c-0.1,0-0.2,0-0.3,0H3.6l0.1-0.2v-0.1c0,0,0.1,0,0.1-0.1
			c0.1-0.1,0.2-0.2,0.3-0.4c0,0,0.1-0.1,0.1-0.2c0,0,0,0,0,0.1l0,0l0,0C4.1,15.3,4.2,15.5,4.1,15.7z M4.2,12.6
			C4.2,12.5,4.2,12.7,4.2,12.6c0,0.1,0,0.2,0,0.3l0,0c0,0.2,0,0,0,0.2l0,0c0,0.3,0,0.4,0,0.6c0-0.1,0-0.1,0-0.1c0,0.2,0,0.4,0,0.6
			c0,0.1-0.1,0.1-0.1,0.2c0,0.1,0,0.1,0,0.1H4c-0.2,0-0.2,0-0.3,0.1c-0.1,0-0.2,0.1-0.2,0.1c0.2-0.2,0.3-0.4,0.4-0.7
			c0,0.1,0,0.1-0.1,0.2c0,0,0,0,0-0.1V14v-0.1v-0.2v-0.1l0,0l0,0l0,0l0,0H3.7H3.6l0,0l0,0c0.1,0,0.1-0.1,0.2-0.1l0,0l-0.2,0.1l0,0
			l0,0l0,0l0,0l0,0l0,0l0,0l0,0l0,0l0,0l0,0l0,0l0,0l0,0l0,0l0,0l0,0l0,0l0,0l0,0l0,0l0,0l0,0c0,0,0,0,0-0.1l-0.1-0.1
			c0,0.1-0.1,0.1-0.1,0.2l0,0l0,0c-0.1,0-0.3,0-0.4,0c0.3-0.2,0.5-0.4,0.7-0.7C3.9,13.1,4,13,4,12.8C4,12.7,4,12.7,4.2,12.6
			c-0.1-0.1-0.1-0.2-0.1-0.2l0.1-0.2l0,0v0.1c0,0,0,0,0,0.1l0,0V12.6z M3.8,13.7L3.8,13.7L3.8,13.7L3.8,13.7L3.8,13.7z"/>
	</g>
	<path class="st1" d="M1.1,27.7C1,27.8,0.9,27.9,0.9,28c-0.1,0.2,0,0.1-0.1,0.1l0,0l0,0c0,0,0,0,0-0.1v-0.1H1
		C1.1,27.8,1.1,27.7,1.1,27.7 M2,18.4l-0.2,0.2C1.9,18.5,1.9,18.5,2,18.4 M2.9,23.1L2.9,23.1L2.9,23.1z M1.6,17.1L1.8,17L2,16.9
		c0,0-0.1,0.1-0.2,0.1L1.6,17.1C1.5,17.1,1.6,17.1,1.6,17.1z M2.9,17.3c-0.1,0.2-0.6,0.7-0.5,0.6C2.6,17.7,2.7,17.6,2.9,17.3
		 M3.7,19.4v0.2V19.4l0.1-0.2C3.8,19.2,3.7,19.4,3.7,19.4z M36,15.4c0-0.5-0.1-0.9-0.2-1.4c-0.1-0.4-0.4-0.8-0.6-1.2
		c-0.3-0.4-0.7-0.6-1.1-0.8c-0.4-0.2-0.9-0.3-1.5-0.3c-0.5,0-1,0.1-1.5,0.3c-0.4,0.2-0.8,0.5-1.1,0.9c-0.3,0.4-0.5,0.8-0.7,1.2
		C29,15,29,16,29.4,16.9c0.2,0.5,0.4,0.9,0.7,1.2c0.3,0.4,0.7,0.6,1.1,0.9s0.9,0.3,1.5,0.3s1.1-0.1,1.5-0.3c0.4-0.2,0.8-0.5,1.1-0.9
		s0.5-0.8,0.6-1.2C36,16.4,36,15.9,36,15.4 M40.7,15.4c0,1-0.2,2-0.5,2.9s-0.8,1.8-1.4,2.5c-0.6,0.7-1.3,1.3-2.2,1.7
		c-0.9,0.4-1.8,0.6-2.9,0.6c-0.9,0-1.7-0.2-2.5-0.5c-0.8-0.4-1.4-0.9-1.9-1.5h-0.1v8.7h-4.8V8.2H29V10h0.1c0.4-0.6,1.1-1.1,1.9-1.5
		s1.7-0.7,2.8-0.7c1.1,0,2,0.2,2.9,0.6c0.8,0.4,1.6,1,2.2,1.7c0.6,0.7,1.1,1.6,1.4,2.5C40.5,13.4,40.7,14.4,40.7,15.4"/>
	<path class="st1" d="M43.7,22.8h4.9V0.6h-4.9V22.8z M62,22.8v-2h-0.1c-0.2,0.3-0.4,0.7-0.7,0.9c-0.3,0.3-0.6,0.5-1,0.8
		c-0.4,0.2-0.8,0.4-1.3,0.5s-0.9,0.2-1.4,0.2c-1,0-1.8-0.2-2.5-0.5c-0.6-0.3-1.2-0.8-1.6-1.4c-0.4-0.6-0.7-1.2-0.9-1.9
		c-0.2-0.7-0.3-1.5-0.3-2.2v-9H57v8c0,0.4,0,0.8,0.1,1.2s0.2,0.7,0.3,1c0.2,0.3,0.4,0.5,0.7,0.7s0.6,0.2,1.1,0.2
		c0.8,0,1.5-0.3,1.9-0.9s0.7-1.4,0.7-2.2v-8h4.8v14.7L62,22.8L62,22.8z M81.2,15.4c0-0.5-0.1-1-0.2-1.4c-0.2-0.4-0.4-0.8-0.7-1.2
		c-0.3-0.3-0.7-0.6-1.1-0.8c-0.5-0.2-1-0.3-1.5-0.3s-1,0.1-1.4,0.3s-0.8,0.5-1.1,0.8c-0.3,0.3-0.5,0.7-0.7,1.2s-0.2,1-0.2,1.4
		c0,0.5,0.1,1,0.2,1.4c0.2,0.5,0.4,0.9,0.7,1.2c0.3,0.3,0.7,0.6,1.1,0.8c0.4,0.2,0.9,0.3,1.4,0.3c1,0,1.9-0.4,2.6-1.1
		c0.3-0.3,0.5-0.7,0.7-1.2C81.1,16.4,81.2,15.9,81.2,15.4z M85.7,21.5c0,1.4-0.2,2.7-0.6,3.7c-0.4,1.1-1,1.9-1.7,2.6
		s-1.6,1.2-2.7,1.6c-1.1,0.3-2.2,0.5-3.5,0.5s-2.6-0.2-4-0.6s-2.5-1-3.5-1.7l2.4-3.4c0.7,0.6,1.5,1.1,2.3,1.4s1.6,0.5,2.5,0.5
		c1.4,0,2.4-0.4,3.1-1.1s1-1.7,1-3v-1h-0.1c-0.4,0.6-1.1,1.1-1.8,1.4c-0.8,0.4-1.6,0.5-2.6,0.5c-1.1,0-2.1-0.2-2.9-0.6
		s-1.6-0.9-2.2-1.6s-1.1-1.5-1.4-2.4s-0.5-1.9-0.5-2.9s0.2-2,0.5-2.9s0.8-1.7,1.4-2.4s1.3-1.3,2.2-1.7c0.9-0.4,1.8-0.6,2.9-0.6
		c0.9,0,1.8,0.2,2.6,0.6c0.8,0.4,1.5,1,2,1.7h0.1V8.2h4.5C85.7,8.2,85.7,21.5,85.7,21.5z M89.6,22.8h4.8V8.2h-4.8V22.8z M94.7,3.5
		c0,0.4-0.1,0.7-0.2,1s-0.3,0.6-0.6,0.8c-0.3,0.2-0.6,0.4-0.9,0.6c-0.3,0.1-0.7,0.2-1.1,0.2c-0.8,0-1.4-0.3-2-0.8
		c-0.5-0.5-0.8-1.2-0.8-1.9c0-0.4,0.1-0.7,0.2-1s0.3-0.6,0.6-0.8c0.3-0.2,0.5-0.4,0.9-0.6c0.3-0.1,0.7-0.2,1.1-0.2
		c0.7,0,1.4,0.3,1.9,0.8c0.2,0.2,0.4,0.5,0.6,0.8C94.6,2.8,94.7,3.1,94.7,3.5z M107.8,4.1C107.6,4,107.4,4,107.2,4s-0.5-0.1-0.7-0.1
		c-0.4,0-0.8,0.1-1.1,0.2c-0.3,0.2-0.5,0.4-0.6,0.6c-0.2,0.3-0.3,0.6-0.3,0.9c-0.1,0.3-0.1,0.7-0.1,1v1.5h3.2v3.6h-3.2v11.1h-4.8
		v-11h-2.7V8.2h2.7V6.7c0-0.9,0.1-1.8,0.3-2.6c0.2-0.8,0.5-1.5,1-2.2c0.5-0.6,1.1-1.1,1.9-1.5s1.8-0.5,3-0.5c0.4,0,0.8,0,1.2,0.1
		c0.4,0.1,0.8,0.1,1.1,0.2C108.1,0.3,107.8,4.1,107.8,4.1z M119.3,25.1c-0.3,0.7-0.6,1.4-1,2s-0.8,1.1-1.3,1.5s-1.1,0.8-1.8,1
		c-0.7,0.2-1.5,0.3-2.4,0.3c-0.4,0-0.9,0-1.4-0.1c-0.4,0-0.8-0.1-1.2-0.2l0.5-4.1c0.2,0.1,0.5,0.1,0.8,0.2c0.3,0,0.5,0.1,0.8,0.1
		c0.7,0,1.3-0.2,1.6-0.5c0.3-0.3,0.6-0.8,0.8-1.5l0.5-1.2l-6.1-14.4h5.3l3.2,9.4h0.1l2.9-9.4h5.1L119.3,25.1L119.3,25.1z"/>
</g>
</svg>
